<svg width="267" height="211" viewBox="0 0 267 211" fill="none" xmlns="http://www.w3.org/2000/svg">
<path d="M251.86 0H59.6574C56.4353 0 53.8203 3.08755 53.8203 6.88832V121.4C53.8203 125.2 56.4353 128.288 59.6574 128.288H251.86C255.082 128.288 257.697 125.2 257.697 121.4V6.88832C257.697 3.08755 255.082 0 251.86 0Z" fill="#6FEDFA"/>
<path d="M91.6922 65.3633H90.4688V153.297H91.6922V65.3633Z" fill="#AECFED"/>
<path d="M117.837 40.3633H116.613V128.297H117.837V40.3633Z" fill="#AECFED"/>
<path d="M155.919 0.000488281H154.695V128.298H155.919V0.000488281Z" fill="#AECFED"/>
<path d="M76.0548 99.2697C75.6345 99.2697 75.2609 98.9787 75.1675 98.5564C75.0555 98.0684 75.3636 97.5804 75.8586 97.4678L114.206 88.8997L151.479 34.5438C151.628 34.3186 151.871 34.1778 152.142 34.1497L190.106 30.4709L228.687 15.5587C229.154 15.3804 229.677 15.615 229.864 16.0842C230.041 16.5535 229.808 17.079 229.341 17.2667L190.648 32.2258C190.573 32.254 190.489 32.2727 190.405 32.2821L152.74 35.9328L115.504 90.2323C115.373 90.42 115.177 90.5513 114.953 90.6077L76.2602 99.2603C76.1855 99.2697 76.1201 99.2697 76.0548 99.2697Z" fill="white"/>
<path d="M88.4736 125.433C89.6909 125.433 90.6777 124.442 90.6777 123.219C90.6777 121.995 89.6909 121.004 88.4736 121.004C87.2563 121.004 86.2695 121.995 86.2695 123.219C86.2695 124.442 87.2563 125.433 88.4736 125.433Z" fill="#70A4D8"/>
<path d="M116.931 90.4946C117.126 89.2872 116.31 88.1496 115.108 87.9536C113.907 87.7576 112.775 88.5776 112.58 89.785C112.385 90.9924 113.201 92.13 114.402 92.326C115.604 92.522 116.736 91.702 116.931 90.4946Z" fill="#70A4D8"/>
<path d="M155.037 35.0595C155.037 36.2795 154.047 37.2743 152.833 37.2743C151.619 37.2743 150.629 36.2795 150.629 35.0595C150.629 33.8395 151.619 32.8447 152.833 32.8447C154.047 32.8447 155.037 33.8301 155.037 35.0595Z" fill="#70A4D8"/>
<path d="M140.764 129.235V105.651C140.764 104.572 139.905 103.708 138.85 103.708H98.1118C97.0565 103.708 96.1973 104.581 96.1973 105.651V129.235H140.764Z" fill="#AECFED"/>
<path d="M135.805 99.504H119.256L115.894 95.6094L112.55 99.504H95.0669C94.0116 99.504 93.1523 100.377 93.1523 101.447V158.149C93.1523 159.228 94.0116 160.101 95.0669 160.101H135.805C136.86 160.101 137.719 159.228 137.719 158.149V101.447C137.719 100.377 136.86 99.504 135.805 99.504Z" fill="#F3FAFE"/>
<path opacity="0.5" d="M118.187 146.54H99.4242C98.8451 146.54 98.3221 146.981 98.2941 147.572C98.2661 148.192 98.7517 148.699 99.3588 148.699H118.121C118.7 148.699 119.223 148.257 119.252 147.666C119.28 147.047 118.794 146.54 118.187 146.54Z" fill="#AECFED"/>
<path opacity="0.5" d="M104.774 150.848H99.3479C98.7595 150.848 98.2832 151.336 98.2832 151.927C98.2832 152.518 98.7595 153.006 99.3479 153.006H104.774C105.362 153.006 105.839 152.518 105.839 151.927C105.839 151.336 105.362 150.848 104.774 150.848Z" fill="#8FBBE4"/>
<path opacity="0.5" d="M119.023 150.848H108.992C108.404 150.848 107.928 151.336 107.928 151.927C107.928 152.518 108.404 153.006 108.992 153.006H119.023C119.611 153.006 120.087 152.518 120.087 151.927C120.087 151.336 119.611 150.848 119.023 150.848Z" fill="#8FBBE4"/>
<path opacity="0.5" d="M131.764 150.848H123.246C122.658 150.848 122.182 151.336 122.182 151.927C122.182 152.518 122.658 153.006 123.246 153.006H131.764C132.352 153.006 132.828 152.518 132.828 151.927C132.828 151.336 132.352 150.848 131.764 150.848Z" fill="#8FBBE4"/>
<path d="M127.821 119.605H123.898V140.035H127.821V119.605Z" fill="#AECFED"/>
<path d="M131.983 116.762H128.061V140.036H131.983V116.762Z" fill="#8FBBE4"/>
<path d="M115.313 123.416H111.391V140.045H115.313V123.416Z" fill="#AECFED"/>
<path d="M119.487 122.543H115.564V140.045H119.487V122.543Z" fill="#8FBBE4"/>
<path d="M102.809 129.468H98.8867V140.045H102.809V129.468Z" fill="#AECFED"/>
<path d="M106.983 125.593H103.061V140.036H106.983V125.593Z" fill="#8FBBE4"/>
<path d="M98.8867 114.332V119.193L128.063 110.887V112.314L131.995 109.292L128.063 108.138V109.47L98.8867 114.332Z" fill="#8FBBE4"/>
<path d="M163.831 16.1034C163.831 10.2568 159.115 5.51758 153.296 5.51758C147.478 5.51758 142.762 10.2568 142.762 16.1034C142.762 25.5538 153.437 35.0886 153.437 35.0886C153.437 35.0886 163.831 26.0793 163.831 16.1034Z" fill="#F3FAFE"/>
<path d="M150.776 13.4004C151.943 13.4004 152.812 14.1136 152.812 15.4838C152.812 16.8539 151.943 17.5672 150.776 17.5672C149.608 17.5672 148.73 16.8539 148.73 15.4838C148.73 14.1136 149.608 13.4004 150.776 13.4004ZM150.178 15.4838C150.178 16.0656 150.402 16.319 150.766 16.319C151.131 16.319 151.364 16.0562 151.364 15.4838C151.364 14.8925 151.131 14.6298 150.766 14.6298C150.402 14.6298 150.178 14.8925 150.178 15.4838ZM155.034 13.5318H157.061L152.345 22.2032H150.318L155.034 13.5318ZM156.603 18.1772C157.771 18.1772 158.639 18.881 158.639 20.2606C158.639 21.6307 157.771 22.3439 156.603 22.3439C155.436 22.3439 154.568 21.6307 154.568 20.2606C154.568 18.881 155.436 18.1772 156.603 18.1772ZM155.996 20.2606C155.996 20.8424 156.221 21.0958 156.585 21.0958C156.949 21.0958 157.183 20.833 157.183 20.2606C157.183 19.6787 156.949 19.4066 156.585 19.4066C156.221 19.4066 155.996 19.6787 155.996 20.2606Z" fill="#AECFED"/>
<path d="M263.025 183.919H49.8083C47.847 183.919 46.25 185.524 46.25 187.495C46.25 189.466 47.847 191.07 49.8083 191.07H263.015C264.976 191.07 266.573 189.466 266.573 187.495C266.583 185.524 264.986 183.919 263.025 183.919Z" fill="#AECFED"/>
<path d="M48.6113 183.919L70.1571 173.249H241.29L264.218 183.919C264.218 183.919 157.909 195.913 48.6113 183.919Z" fill="#CFE5F7"/>
<path d="M57.3241 113.036C57.3895 112.989 57.4456 112.952 57.5016 112.924C57.5016 112.924 56.8665 107.912 49.6846 104.168C45.9209 102.206 43.3339 101.39 43.4833 98.9029C43.6327 96.4159 42.5027 85.6987 35.2554 88.5047C35.2554 88.5047 34.0973 87.9885 33.5743 88.0636C33.5743 88.0636 34.0039 88.1481 34.2187 88.3733C33.3782 88.3264 32.1828 88.3827 31.1741 88.9551C30.6231 89.2648 30.0907 90.1001 29.6144 91.2544C29.5864 91.3295 29.5491 91.4045 29.521 91.489C29.3249 91.9958 29.1381 92.5588 28.9794 93.1595C28.6898 94.2199 28.447 95.4024 28.2789 96.6318C28.2229 97.0353 28.1762 97.4482 28.1388 97.8612C28.1388 97.8799 28.1388 97.8893 28.1388 97.9081C27.8493 101.099 28.0921 104.421 29.2409 106.542C29.3156 106.692 29.3996 106.823 29.493 106.964C29.5397 107.039 29.5864 107.114 29.6425 107.18C29.8199 107.424 30.016 107.649 30.2215 107.837C30.1188 107.612 30.0067 107.349 29.8946 107.021C29.8759 106.955 29.8479 106.88 29.8292 106.805C29.7919 106.683 29.7545 106.542 29.7172 106.401C29.521 105.632 29.3436 104.618 29.2315 103.285C29.2595 103.501 29.4557 104.918 29.932 106.345C29.9693 106.467 30.016 106.579 30.0627 106.701C30.0814 106.758 30.1001 106.814 30.1281 106.88C30.2589 107.227 30.4083 107.555 30.5764 107.865C30.6231 107.95 30.6698 108.025 30.7165 108.109C30.7632 108.184 30.8099 108.25 30.8472 108.316C32.08 109.132 33.593 110.427 35.1713 111.938C36.8057 113.505 38.4961 115.317 39.9997 117.053C40.1772 117.259 40.3546 117.466 40.5227 117.663C40.8963 118.104 41.2512 118.526 41.5781 118.948C41.7182 119.117 41.8489 119.296 41.9797 119.455C42.1478 119.671 42.3159 119.887 42.4747 120.103C43.8755 121.961 44.7628 123.472 44.7067 124.11C44.7067 124.11 45.7247 123.153 47.2097 121.783L47.5552 119.718C47.7327 120.093 47.7514 120.797 47.742 121.295C47.7794 121.266 47.8074 121.229 47.8447 121.201C47.9662 121.088 48.0876 120.976 48.209 120.863C50.9361 118.357 54.5971 115.063 56.5957 113.534C56.3342 112.67 55.6244 111.15 55.5964 111.094C56.2314 111.291 56.9693 112.426 57.3241 113.036Z" fill="#5E0D0E"/>
<path d="M31.137 108.486C31.1089 108.495 33.4624 109.725 35.2276 109.237C36.89 108.777 37.9733 106.618 37.9547 106.609C37.2542 106.468 37.0487 105.492 37.0581 101.316L36.7405 101.382L31.3891 102.451C31.3891 102.451 31.5105 104.141 31.5105 105.736C31.5292 107.069 31.4452 108.345 31.137 108.486Z" fill="#F68B64"/>
<path d="M37.2007 90.7108C37.2007 90.7108 34.5576 87.8861 31.2422 90.5701C31.2422 90.5607 33.1661 90.2322 37.2007 90.7108Z" fill="#F7901E"/>
<path d="M31.3984 102.441C31.3984 102.441 31.5198 104.131 31.5198 105.726C34.5178 105.642 36.0961 102.892 36.7499 101.372L31.3984 102.441Z" fill="#F36C4A"/>
<path d="M37.3 100.79C37.3 100.79 38.869 98.2937 39.2426 96.1634C39.5134 94.6431 38.7382 89.003 33.0973 89.81C33.0973 89.81 31.4629 89.9696 29.9219 91.0207C28.6985 91.8559 26.9334 93.6484 28.9039 98.5659L29.4176 100.227L37.3 100.79Z" fill="#5E0D0E"/>
<path d="M10.0625 199.958L12.9016 200.042L15.9743 200.136C15.9743 200.136 23.0721 192.197 27.0507 179.471C27.1441 179.171 27.2375 178.88 27.3495 178.57C29.5256 172.189 34.0458 164.174 36.4273 156.92C36.8103 155.765 37.1465 154.677 37.4547 153.645C37.5481 153.316 37.6508 152.988 37.7348 152.669C39.4906 146.55 39.995 142.524 40.4619 138.226L23.2776 138.366C23.2683 138.385 20.4945 167.712 10.0625 199.958Z" fill="#081B3C"/>
<path d="M25.6769 128.455C25.7236 136.676 24.4815 140.195 24.4815 140.195C24.4815 140.195 31.8408 143.949 40.5824 141.19C40.6852 141.162 47.0079 139.707 47.0079 139.707C46.8584 139.379 45.3735 133.823 45.2334 133.514C43.3842 129.525 42.9826 127.611 42.7678 126.381C42.3662 124.091 42.3569 121.726 42.553 119.493C43.0854 113.59 44.673 108.682 44.673 108.682C42.2915 108.137 40.0594 107.18 37.5752 106.242C37.0055 106.955 35.259 107.706 33.7461 107.668C31.9996 107.631 31.4392 106.88 31.5326 106.063C29.6741 107.105 28.1985 108.081 28.1985 108.081C26.6202 110.831 23.4168 113.505 23.1926 117.738C23.1273 118.789 25.6676 128.23 25.6769 128.455Z" fill="#5DABCE"/>
<path d="M30.4003 103.953C30.4003 103.953 37.4888 104.075 37.4981 99.636C37.5075 95.1971 38.4227 92.2221 33.8932 91.9594C29.3636 91.6966 28.4857 93.3858 28.1215 94.8686C27.7572 96.3514 28.5511 103.812 30.4003 103.953Z" fill="#F68B64"/>
<path d="M30.6641 91.8562C30.6641 91.8562 32.6066 97.0646 35.5859 97.8342C38.5651 98.6037 39.8539 97.806 39.8539 97.806C39.8539 97.806 38.5558 95.732 38.0795 92.5413C38.0795 92.5319 32.1303 89.3786 30.6641 91.8562Z" fill="#5E0D0E"/>
<path d="M31.1376 92.2775C31.1376 92.2775 29.69 93.4412 29.3351 94.5673C28.9802 95.6935 28.8214 98.0209 28.149 97.9458C28.149 97.9458 26.6827 94.4078 28.3264 92.4089C30.0729 90.2786 31.1376 92.2775 31.1376 92.2775Z" fill="#5E0D0E"/>
<path d="M31.5293 106.083C31.5293 106.083 27.4293 116.265 27.3079 118.321C27.1865 120.385 26.8222 152.011 26.8222 152.011C26.8222 152.011 27.0651 153.466 24.2913 152.856C21.5175 152.246 20.7891 151.645 20.7891 151.645C20.7891 151.645 23.4414 132.135 22.7223 125.34C22.0032 118.555 28.2698 107.481 28.2698 107.481L31.5293 106.083Z" fill="#292FAA"/>
<path d="M12.8984 200.041L15.9711 200.135C15.9711 200.135 23.0689 192.196 27.0475 179.47C27.1409 179.17 27.2343 178.879 27.3463 178.569C29.5224 172.188 34.0426 164.173 36.4241 156.919C36.8071 155.765 37.1433 154.676 37.4515 153.644C37.5449 153.315 37.6476 152.987 37.7316 152.668L35.2007 150.734C35.2007 150.734 27.5985 163.094 25.2543 174.731C23.1997 184.857 15.0091 197.019 12.8984 200.041Z" fill="#0B1629"/>
<path d="M29.4001 210.392H29.6149C29.9698 210.392 30.222 210.064 30.1473 209.717L3.73572 93.4316H0L28.8958 209.998C28.9612 210.233 29.1666 210.392 29.4001 210.392Z" fill="#F7901E"/>
<path d="M34.9302 175.838C34.8835 181.497 35.173 194.504 35.9015 199.891H38.6192C40.1229 199.891 40.87 199.872 40.87 199.872C42.7099 190.507 44.0174 182.764 44.97 176.082C45.7545 170.602 46.4456 165.909 46.9779 161.865C47.5196 157.792 47.8932 154.385 48.0239 151.513C48.0426 151.063 48.0613 150.622 48.0706 150.19C48.08 149.758 48.08 149.346 48.08 148.933L33.2305 147.478C33.4266 157.388 34.9489 172.544 34.9302 175.838Z" fill="#081B3C"/>
<path d="M38.6172 199.882C40.1208 199.882 40.868 199.863 40.868 199.863C42.7078 190.497 44.0153 182.755 44.9679 176.073C45.7524 170.592 46.4435 165.9 46.9759 161.855C47.5175 157.782 47.8911 154.376 48.0219 151.504L42.577 154.723C42.577 154.723 46.0513 155.952 44.7251 165.29C43.4082 174.618 40.4664 198.568 38.6172 199.882Z" fill="#0B1629"/>
<path d="M37.9176 151.411C37.9176 151.411 38.9636 155.212 42.578 154.724C46.1923 154.236 51.3382 152.059 51.3382 152.059C51.3382 152.059 49.7879 147.15 47.8733 140.694C45.5478 132.886 42.662 122.816 41.3078 116.463C40.9249 114.68 40.6634 113.197 40.57 112.136L37.5721 106.28C37.5721 106.28 33.0986 116.378 32.8557 118.921C32.6129 121.474 37.9176 151.411 37.9176 151.411Z" fill="#292FAA"/>
<path d="M41.5356 118.546L37.5758 106.28C37.5851 106.29 42.5816 107.772 45.0939 109.049C45.0939 109.049 46.6629 111.085 47.6342 115.778C47.6342 115.778 48.6615 127.048 46.3734 131.168C46.3734 131.168 39.1354 132.623 27.5547 128.625V125.96C27.5547 125.96 40.2188 126.626 42.8151 126.926L41.5356 118.546Z" fill="#F68B64"/>
<path d="M38.0772 124.261C38.2359 128.38 39.2072 136.385 47.8087 140.665C47.8274 140.674 47.8554 140.684 47.8741 140.693C45.5486 132.885 42.6627 122.815 41.3086 116.462C39.7302 118.846 37.9931 121.989 38.0772 124.261Z" fill="#B71F38"/>
<path d="M37.573 106.289C37.573 106.289 44.9137 106.805 46.6881 110.766C48.4533 114.726 49.023 127.892 46.7722 131.778C46.7722 131.778 43.6715 132.669 38.1894 131.637C38.124 131.628 38.0586 131.609 37.9839 131.599C37.9839 131.599 36.2375 127.301 37.8065 126.447C37.8065 126.447 42.4294 126.691 41.9438 125.152C41.4581 123.613 37.573 106.289 37.573 106.289Z" fill="#292FAA"/>
<path d="M28.84 126.663C28.84 126.663 27.8313 125.433 27.6165 124.176C27.4017 122.918 26.7293 121.989 24.9922 121.764C23.255 121.529 22.4986 121.51 22.5079 121.998C22.5079 122.496 23.9275 125.94 26.4304 127.995C28.9333 130.06 28.84 126.663 28.84 126.663Z" fill="#F68B64"/>
<path d="M15.6889 116.256C18.2105 113.29 24.748 106.871 31.491 106.083L25.6726 117.476C25.6726 117.476 25.3457 119.428 23.6179 120.564C19.3966 123.351 14.0265 124.58 14.0265 124.58C14.0265 124.58 10.3935 122.985 5.42498 119.325C3.86532 118.18 1.12891 113.797 1.12891 113.797L1.86671 111.31C1.86671 111.31 6.51769 113.929 8.18008 114.679C9.12335 115.111 11.3087 116.134 12.8404 116.857C13.8304 117.326 14.9884 117.072 15.6889 116.256Z" fill="#292FAA"/>
<path d="M162.517 137.053C162.125 136.724 161.639 136.875 160.266 136.236C159.995 136.114 159.304 135.917 158.987 135.852C158.93 135.842 158.884 135.795 158.865 135.739C158.445 134.153 156.614 126.805 156.418 124.693C156.213 122.525 154.821 113.347 154.606 111.949C154.588 111.855 154.494 111.789 154.41 111.818L150.413 112.934C150.329 112.953 150.282 113.038 150.301 113.122C150.544 114.22 152.085 121.09 152.533 124.562C152.888 127.33 157.007 136.227 157.081 136.8C157.081 136.809 157.081 136.809 157.081 136.818C157.109 136.987 157.249 137.119 157.427 137.119C158.445 137.119 161.695 137.119 161.872 137.119C162.05 137.109 162.638 137.156 162.517 137.053Z" fill="#F58D80"/>
<path d="M153.634 108.449C151.505 101.973 149.133 102.245 149.133 102.245L150.973 115.862C152.28 115.506 153.989 114.699 155.306 114.323C154.867 112.277 154.157 110.044 153.634 108.449Z" fill="#0F5F89"/>
<path d="M152.977 91.6033C152.323 87.3427 148.494 84.2833 144.478 86.3479C143.572 86.8171 142.358 87.7556 141.732 88.5627C140.051 90.7305 139.621 93.4145 137.875 95.5261C138.51 96.0141 139.285 96.5209 140.21 97.0182L141.293 95.5636L140.92 97.3749C143.609 98.6699 147.42 99.7398 152.612 99.7116C153.276 96.7461 153.322 93.8744 152.977 91.6033Z" fill="#F15751"/>
<path d="M154.222 186.032C153.606 185.581 153.12 185.281 151.159 184.324C151.028 184.258 150.571 183.967 150.402 183.864C149.982 183.601 149.553 183.188 149.188 182.785C148.833 182.39 148.675 181.133 148.591 180.129C148.796 177.886 152.027 141.924 152.709 138.029C153.41 134.013 152.345 127.884 152.345 127.884L149.851 126.937L145.116 143.444L145.49 156.01C145.49 156.01 144.379 159.633 144.238 161.791C144.098 163.959 145.845 181.518 145.845 181.518C145.845 182.146 145.817 182.709 145.751 183.066C145.621 183.723 144.911 185.074 145.238 185.694C145.565 186.313 145.938 186.463 145.938 186.463L154.456 186.604C154.904 186.604 154.596 186.304 154.222 186.032Z" fill="#F58D80"/>
<path d="M141.299 126.59C141.299 126.59 138.338 131.076 137.637 134.783C136.937 138.49 138.151 149.892 136.797 154.753C136.068 157.381 133.285 161.444 132.865 164.851C132.445 168.248 130.969 178.065 130.969 178.065C130.745 179.097 130.4 180.373 129.942 180.964C129.662 181.33 129.157 181.79 128.831 182.438C128.317 183.461 128.597 184.981 128.98 185.816C129.176 186.248 128.971 186.248 129.41 186.379C130.726 186.792 132.127 186.098 132.697 184.831C133.015 184.118 133.285 183.17 133.341 181.978C133.397 180.711 133.594 179.707 133.808 178.966L143.26 155.673L150.105 135.571L151.861 125.22L141.299 126.59Z" fill="#F79D8E"/>
<path d="M132.957 184.155C130.912 184.53 129.548 183.329 128.839 182.418C128.316 183.441 128.064 184.962 128.446 185.806C128.783 186.548 129.763 186.529 130.538 186.557C131.36 186.585 131.995 186.125 132.397 185.412C132.602 185.074 132.799 184.652 132.957 184.155Z" fill="#EEF9FE"/>
<path d="M143.223 155.213C143.401 155.222 143.578 155.241 143.756 155.25C143.765 155.25 143.774 155.25 143.784 155.25C143.961 155.259 144.139 155.269 144.316 155.278C144.325 155.278 144.335 155.278 144.344 155.278C144.521 155.288 144.699 155.297 144.876 155.306C144.886 155.306 144.895 155.306 144.904 155.306C145.082 155.316 145.269 155.325 145.446 155.325C147.463 155.391 149.957 155.363 151.554 155.091C152.366 146.888 152.675 139.399 152.973 137.748C153.702 133.731 152.338 127.387 152.338 127.387L151.685 127.265L152.096 124.919L141.113 126.308C141.113 126.308 138.04 130.794 137.302 134.501C136.574 138.208 137.844 149.61 136.434 154.471C136.434 154.471 139.572 154.969 143.223 155.213Z" fill="#41A630"/>
<path d="M143.691 101.081C143.691 101.081 140.244 100.631 138.694 102.33C137.144 104.028 141.664 117.683 141.944 119.841C142.224 122.009 140.506 127.762 140.506 127.762C140.506 127.762 149.705 129.63 152.329 127.875C152.329 127.875 152.61 112.315 152.329 110.766C152.049 109.218 149.705 102.94 149.135 102.32C148.584 101.701 143.691 101.081 143.691 101.081Z" fill="#4291BA"/>
<path d="M144.996 95.817C144.996 95.817 144.977 95.9296 144.94 96.1267C144.762 97.0745 144.09 100.218 143.642 101.082C143.091 102.123 145.519 105.455 147.854 105.051C148.545 104.929 147.265 101.992 147.331 101.682C147.452 101.082 147.611 100.275 147.77 99.4395C147.863 98.9702 147.956 98.4916 148.04 98.0412C148.293 96.7648 148.498 95.7231 148.498 95.7231L144.996 95.817Z" fill="#F8A592"/>
<path opacity="0.5" d="M144.944 96.1256C144.981 95.9285 145 95.8159 145 95.8159L148.502 95.7314C148.502 95.7314 148.297 96.7731 148.045 98.0495C147.961 98.4999 147.867 98.9691 147.774 99.4384C147.232 99.3539 146.672 99.0911 146.102 98.5938C145.486 98.0494 145.084 97.3925 144.832 96.6981C144.879 96.4634 144.916 96.2758 144.944 96.1256Z" fill="#F37559"/>
<path d="M147.35 87.8024C147.35 87.8024 145.697 87.6147 144.669 88.9567C143.633 90.3081 142.521 94.4749 145.09 96.7366C147.658 98.9983 150.198 96.4363 150.572 93.7147C150.945 91.0026 151.095 87.6992 147.35 87.8024Z" fill="#F8A592"/>
<path d="M151.34 93.6776C151.031 94.2782 150.518 94.6067 150.191 94.419C149.864 94.2313 149.845 93.5837 150.154 92.9831C150.462 92.3825 150.975 92.054 151.302 92.2417C151.629 92.4294 151.638 93.077 151.34 93.6776Z" fill="#F8A592"/>
<path d="M147.539 87.3516C147.539 87.3516 145.335 91.3119 143.756 91.4996C142.178 91.6873 141.973 93.7895 141.973 93.7895C141.973 93.7895 142.533 88.9376 144.102 87.9992C145.662 87.0701 147.539 87.3516 147.539 87.3516Z" fill="#F15751"/>
<path d="M144.169 92.4947C144.3 93.1986 144.038 93.8461 143.59 93.94C143.142 94.0338 142.675 93.5364 142.553 92.8326C142.422 92.1287 142.684 91.4812 143.132 91.3873C143.581 91.2935 144.048 91.7909 144.169 92.4947Z" fill="#F8A592"/>
<path d="M146.111 95.0469L148.493 95.5161C148.493 95.5161 148.259 96.417 147.204 96.2387C145.924 96.0323 146.111 95.0469 146.111 95.0469Z" fill="white"/>
<path d="M121.227 114.746C121.078 114.398 122.777 114.004 122.852 113.638C122.918 113.272 120.657 113.385 120.555 113.075C120.368 112.503 123.02 112.794 122.955 112.531C122.889 112.259 120.162 111.827 120.424 111.339C120.685 110.851 123.198 112.09 123.254 111.771C123.31 111.452 120.816 110.832 120.816 110.138C120.816 109.762 124.953 111.733 125.402 111.508C125.85 111.273 124.785 109.594 125.131 109.312C125.486 109.03 126.775 112.766 127.045 112.878C127.307 112.991 132.892 115.74 134.844 116.116C135.04 115.459 136.497 111.921 136.665 111.302C137.786 112.005 139.046 112.09 140.205 112.728C139.523 114.811 137.067 119.973 136.525 120.264C134.862 121.146 127.914 116.05 126.532 115.196C125.15 114.333 124.412 114.689 123.506 114.445C122.6 114.192 121.367 115.093 121.227 114.746Z" fill="#F8A592"/>
<path d="M139.691 116.35C139.691 116.35 143.249 109.152 143.362 106.646C143.474 104.14 140.98 101.334 138.823 101.822C136.665 102.31 134.938 113.872 134.938 113.872L139.691 116.35Z" fill="#0F5F89"/>
<path d="M117.483 135.41C117.623 135.195 117.277 134.829 117.016 134.547C116.726 134.237 114.98 133.458 114.681 133.365C114.382 133.271 111.823 133.609 110.843 133.918C109.862 134.228 109.218 134.097 109.218 134.097C108.965 134.04 108.573 133.965 108.274 133.899L107.91 136.189C110.208 136.18 112.337 136.377 112.561 136.368C113.252 136.358 114.522 135.645 114.821 135.542C115.12 135.439 115.708 135.523 116.11 135.72C116.512 135.908 117.67 136.368 117.866 136.264C118.053 136.18 117.483 135.41 117.483 135.41Z" fill="#F58D80"/>
<path d="M111.403 133.787L98.4676 130.531C98.4676 130.531 95.6285 125.069 91.4538 119.204C90.0903 120.555 89.3338 122.638 87.9609 123.98L95.1989 133.872C95.5631 134.275 111.645 136.058 111.645 136.058L111.403 133.787Z" fill="#F58D80"/>
<path d="M92.4159 129.452C92.4159 129.452 88.6989 124.459 87.3354 122.094C85.9812 119.729 88.26 121.268 90.5948 120.649C91.482 120.414 90.7442 115.572 92.4159 117.261C95.1524 120.039 97.8981 126.045 97.8981 126.045L92.4159 129.452Z" fill="#F499C1"/>
<path d="M93.6405 73.1719H62.8115C61.3079 73.1719 60.0938 74.4013 60.0938 75.9122V94.0245C60.0938 95.5449 61.3079 96.7649 62.8115 96.7649H84.3853C85.7675 98.7169 88.2891 102.208 88.5039 102.208C88.7094 102.208 88.3078 98.9046 88.0276 96.7649H93.6405C95.1441 96.7649 96.3583 95.5355 96.3583 94.0245V75.9216C96.3676 74.4013 95.1441 73.1719 93.6405 73.1719Z" fill="#EEF9FE"/>
<path d="M97.4299 180.551L97.2338 183.835C97.1591 184.248 96.8789 185.281 96.8789 185.656C96.8789 187.082 103.603 184.445 102.1 183.817C101.959 183.76 101.25 183.329 101.203 182.841C101.138 182.09 100.96 180.588 100.96 180.588L97.4299 180.551Z" fill="#F8A592"/>
<path d="M108.848 180.551L108.652 183.836C108.577 184.249 108.297 185.281 108.297 185.656C108.297 187.083 115.021 184.446 113.518 183.817C113.377 183.761 112.359 183.582 112.322 183.094C112.257 182.344 112.126 180.044 112.126 180.044L108.848 180.551Z" fill="#F8A592"/>
<path d="M87.1872 145.349L103.26 145.414C103.26 145.414 110.517 145.227 111.666 147.742C112.814 150.266 112.543 182.305 112.543 182.305C112.543 182.305 108.668 182.887 108.471 182.671L104.11 163.489C103.643 161.866 103.484 160.167 103.643 158.478L104.063 154.02L97.4324 154.358C97.4324 154.358 89.9143 154.236 87.4394 151.73C84.9458 149.234 87.1872 145.349 87.1872 145.349Z" fill="#DFF0F4"/>
<path d="M76.2896 143.566L93.5673 144.636C93.5673 144.636 101.001 145.246 102.15 147.77C103.299 150.295 101.422 182.606 101.422 182.606C101.422 182.606 97.1069 182.869 97.1162 182.681C97.1256 182.456 95.3418 167.882 94.3612 163.264C94.0436 161.8 93.9409 160.299 94.0343 158.807L94.66 153.636C94.66 153.636 78.6058 153.542 77.8119 152.735C75.337 150.22 76.2896 143.566 76.2896 143.566Z" fill="#EEF9FE"/>
<path d="M92.0196 116.923C89.6101 116.191 85.1086 115.806 85.1086 115.806C85.1086 115.806 82.2881 115.346 81.3635 115.543C80.0093 115.834 77.4783 115.975 77.2355 121.868C77.0674 126.082 76.5911 136.518 76.1055 143.566L93.3085 144.617C92.5333 133.778 94.2984 117.617 92.0196 116.923Z" fill="#41A630"/>
<path d="M87.4608 110.776L84.7617 115.769C84.7617 115.769 86.7977 119.41 88.7216 119.513C90.3373 119.598 90.0851 117.195 90.0851 117.195C90.0851 117.195 90.3373 114.089 91.1124 112.7C91.8783 111.311 87.4608 110.776 87.4608 110.776Z" fill="#F8A592"/>
<path d="M87.7009 112.775C88.308 113.423 89.3166 114.286 90.4187 114.831C90.5775 114.052 90.8016 113.245 91.1005 112.7C91.4553 112.062 90.7082 111.602 89.793 111.293C88.5695 110.964 87.4488 110.776 87.4488 110.776L86.9258 111.734C87.0659 112.071 87.4955 112.559 87.7009 112.775Z" fill="#F37559"/>
<path d="M88.8366 102.367C88.7246 102.283 86.0629 108.533 87.2209 110.776C88.379 113.019 91.433 114.502 92.9739 113.422C94.683 112.221 96.5416 105.239 94.4869 102.686C92.4229 100.124 88.8366 102.367 88.8366 102.367Z" fill="#F8A592"/>
<path d="M94.4693 98.9324C92.3773 98.7822 90.7523 99.6456 90.1359 100.03C89.2019 99.8896 87.8477 100.04 85.9986 101.795C83.7291 103.944 84.084 107.135 85.5036 109.04C86.9232 110.954 86.4469 112.568 86.4469 112.568L86.9699 111.808C87.3528 111.236 87.6329 110.579 87.745 109.894C87.8104 109.481 87.8477 109.021 87.7824 108.627C87.6049 107.566 89.1459 107.322 89.753 106.656C90.2106 106.14 90.6122 104.77 91.35 103.906L92.1158 103.306C92.1158 103.306 93.6755 102.658 94.8522 103.296C96.029 103.916 97.159 99.1295 94.4693 98.9324Z" fill="#0F5F89"/>
<path d="M89.3422 107.782C89.1367 108.579 88.595 109.124 88.1467 109.002C87.6891 108.88 87.4836 108.138 87.6891 107.35C87.8946 106.552 88.4362 106.008 88.8845 106.13C89.3422 106.242 89.5476 106.984 89.3422 107.782Z" fill="#F8A592"/>
<path d="M91.5191 110.354L94.0407 110.917C94.0407 110.917 93.7699 111.864 92.6492 111.649C91.2856 111.395 91.5191 110.354 91.5191 110.354Z" fill="white"/>
<path d="M75.6777 91.1051C75.6777 92.0529 76.9105 92.8225 78.4328 92.8225C79.9551 92.8225 81.1879 92.0529 81.1879 91.1051C81.1879 90.1572 79.9551 89.3877 78.4328 89.3877C76.9105 89.3877 75.6777 90.1572 75.6777 91.1051Z" fill="#0F5F89"/>
<path d="M78.4345 54.6646C85.2989 54.6646 90.8558 60.2578 90.8558 67.1461C90.8558 70.9094 89.1934 74.2878 86.569 76.5777C86.5597 76.5871 84.6265 78.6892 84.3089 80.8852L84.2529 82.2272C84.2342 82.6683 84.0661 83.0906 83.7672 83.4191C83.7392 83.4472 83.7112 83.4754 83.6832 83.5035H73.1765C73.1485 83.4754 73.1205 83.4472 73.0924 83.4191C72.7936 83.0906 72.6255 82.6683 72.6068 82.2272L72.5508 80.8852C72.2332 78.6892 70.3 76.5871 70.2906 76.5777C67.6663 74.2878 66.0039 70.9094 66.0039 67.1461C66.0132 60.2578 71.5701 54.6646 78.4345 54.6646Z" fill="#B6FCC5"/>
<path d="M78.4349 91.2932C81.3488 91.2932 83.7116 88.9188 83.7116 85.9908V83.5039H73.1582V85.9908C73.1582 88.9188 75.5211 91.2932 78.4349 91.2932Z" fill="#4291BA"/>
<path opacity="0.3" d="M75.3177 76.6901C82.1821 76.6901 87.7483 71.0969 87.7483 64.1992C87.7483 61.4026 86.833 58.8124 85.2827 56.729C88.6449 58.9625 90.8583 62.7915 90.8583 67.146C90.8583 70.9092 89.1959 74.2877 86.5715 76.5775C86.5622 76.5869 84.629 78.6891 84.3114 80.8851L84.2554 82.2271C84.2367 82.6681 84.0686 83.0904 83.7697 83.4189C83.7417 83.4471 83.7137 83.4752 83.6857 83.5034H73.179C73.151 83.4752 73.123 83.4471 73.0949 83.4189C72.7961 83.0904 72.628 82.6681 72.6093 82.2271L72.5533 80.8851C72.2357 78.6891 70.3025 76.5869 70.2931 76.5775C69.6301 75.9957 69.023 75.3481 68.5 74.6443C70.4613 75.9394 72.8054 76.6901 75.3177 76.6901Z" fill="#EAB155"/>
<path d="M78.517 73.199L80.992 62.3879L83.1493 68.6756L83.7844 68.4597L80.8519 59.9385L78.3396 70.9748L75.762 64.6496L73.3711 68.7037L73.9501 69.0416L75.6499 66.1605L78.517 73.199Z" fill="#EEF9FE"/>
<path d="M81.6258 85.1268L81.6819 85.1362C81.9901 85.1643 82.2702 84.9391 82.3076 84.6294L84.0354 67.8778C84.0634 67.5681 83.8392 67.2866 83.531 67.2491L83.475 67.2397C83.1668 67.2115 82.8866 67.4368 82.8493 67.7465L81.1215 84.498C81.0935 84.8171 81.3176 85.0986 81.6258 85.1268Z" fill="#4291BA"/>
<path d="M75.1943 85.1367C74.8675 85.1742 74.5686 84.9302 74.5406 84.6017L72.8222 67.9065C72.7848 67.578 73.0276 67.2777 73.3545 67.2495C73.6814 67.212 73.9802 67.456 74.0083 67.7845L75.7267 84.4797C75.764 84.7988 75.5306 85.0991 75.1943 85.1367Z" fill="#4291BA"/>
<path d="M73.2915 84.6771H83.5741C83.9009 84.6771 84.1624 84.4143 84.1624 84.0859C84.1624 83.7574 83.9009 83.4946 83.5741 83.4946H73.2915C72.9646 83.4946 72.7031 83.7574 72.7031 84.0859C72.7031 84.4143 72.9646 84.6771 73.2915 84.6771Z" fill="#0F5F89"/>
<path d="M73.2915 87.0326H83.5741C83.9009 87.0326 84.1624 86.7698 84.1624 86.4413C84.1624 86.1129 83.9009 85.8501 83.5741 85.8501H73.2915C72.9646 85.8501 72.7031 86.1129 72.7031 86.4413C72.7031 86.7698 72.9646 87.0326 73.2915 87.0326Z" fill="#0F5F89"/>
<path d="M73.897 89.6698H82.9654C83.2923 89.6698 83.5538 89.407 83.5538 89.0785C83.5538 88.7501 83.2923 88.4873 82.9654 88.4873H73.897C73.5701 88.4873 73.3086 88.7501 73.3086 89.0785C73.3086 89.407 73.5701 89.6698 73.897 89.6698Z" fill="#0F5F89"/>
<path d="M104.791 134.041L91.5017 130.513C91.5017 130.513 87.4391 125.895 83.6099 120.574C82.2464 121.71 81.6674 124.703 80.2852 125.83L89.0548 134.604C89.363 135.008 104.11 136.059 104.11 136.059L104.791 134.041Z" fill="#F8A592"/>
<path d="M83.3309 130.324C83.3309 130.324 78.8107 124.552 77.7087 122.29C76.6066 120.029 77.7834 116.444 79.9781 116.012C82.1635 115.59 88.5049 125.932 88.5049 125.932L83.3309 130.324Z" fill="#F499C1"/>
<path d="M113.028 135.853C113.168 135.665 112.87 135.299 112.645 135.036C112.393 134.736 110.824 133.919 110.553 133.816C110.283 133.713 107.901 133.882 106.977 134.116C106.052 134.351 105.464 134.192 105.464 134.192C105.23 134.126 104.875 134.041 104.604 133.957L103.895 136.031C106.015 136.153 108.228 136.463 108.424 136.472C109.059 136.5 110.273 135.909 110.553 135.834C110.834 135.759 111.375 135.871 111.73 136.068C112.085 136.266 113.131 136.754 113.318 136.669C113.514 136.594 113.028 135.853 113.028 135.853Z" fill="#F8A592"/>
<path d="M84.1767 158.44H82.4863V183.328H84.1767V158.44Z" fill="#0F5F89"/>
<path d="M74.772 184.436H91.6014C92.3766 184.436 93.0023 185.065 93.0023 185.844C93.0023 185.985 92.8902 186.088 92.7595 186.088H73.6139C73.4738 186.088 73.3711 185.975 73.3711 185.844C73.3711 185.065 73.9968 184.436 74.772 184.436Z" fill="#0F5F89"/>
<path d="M82.3462 183.329H84.4102C85.0172 183.329 85.5122 183.826 85.5122 184.436C85.5122 185.046 85.0172 185.544 84.4102 185.544H82.3462C81.7391 185.544 81.2441 185.046 81.2441 184.436C81.2441 183.817 81.7391 183.329 82.3462 183.329Z" fill="#0F5F89"/>
<path d="M94.2386 155.569L93.0805 150.726C92.268 147.338 89.2888 144.87 85.8239 144.729L71.1612 144.138L70.7129 142.637L85.8893 143.256C90.0079 143.425 93.5568 146.353 94.5188 150.379L95.7516 155.522C95.3219 155.55 94.8176 155.559 94.2386 155.569Z" fill="#0F5F89"/>
<path d="M74.5584 152.988C74.5584 152.988 94.7032 153.335 96.8046 152.988C98.9059 152.641 99.8118 155.287 99.1861 156.676C98.5604 158.065 96.8326 158.6 94.2923 158.722C91.752 158.844 70.6265 159.445 70.0288 158.882C69.5432 158.422 63.1364 136.415 60.8016 128.363C60.3346 126.758 61.2499 125.078 62.8562 124.599C64.4439 124.13 66.1156 125.041 66.6013 126.636L74.5584 152.988Z" fill="#4291BA"/>
<path d="M138.195 122.582H121.384C120.936 122.582 120.535 122.854 120.366 123.267L115.192 135.955H105.928C105.666 135.955 105.461 136.161 105.461 136.424C105.461 136.687 105.666 136.893 105.928 136.893H132.302C133.031 136.893 133.684 136.461 133.983 135.805L139.194 124.139C139.521 123.407 138.989 122.582 138.195 122.582Z" fill="#4291BA"/>
<path d="M129.142 129.967C129.03 130.54 128.535 130.915 128.04 130.821C127.545 130.718 127.237 130.183 127.349 129.611C127.461 129.038 127.956 128.663 128.451 128.757C128.946 128.86 129.254 129.404 129.142 129.967Z" fill="white"/>
<path d="M104.137 139.728H226.575C227.35 139.728 227.985 139.09 227.985 138.311C227.985 137.532 227.35 136.894 226.575 136.894H104.137C103.362 136.894 102.727 137.532 102.727 138.311C102.727 139.09 103.352 139.728 104.137 139.728Z" fill="#0F5F89"/>
<path d="M124.89 186.313H126.898L122.574 139.728H120.566L124.89 186.313Z" fill="#0F5F89"/>
<path d="M166.571 182.774C166.571 182.774 168.261 183.29 169.13 183.412C169.998 183.544 171.137 182.465 171.754 182.756C172.426 183.075 172.398 185.956 172.398 185.956C172.398 185.956 163.33 186.772 160.78 185.928C159.772 185.599 163.115 183.966 166.571 182.774Z" fill="#4D8146"/>
<path d="M107.842 186.313H105.844L110.159 139.728H112.166L107.842 186.313Z" fill="#0F5F89"/>
</svg>
