<svg width="160" height="164" viewBox="0 0 160 164" fill="none" xmlns="http://www.w3.org/2000/svg">
<g filter="url(#filter0_d_18_4210)">
<g opacity="0.3">
<path d="M57.5062 12.8797C57.2696 13.1047 56.9036 13.0864 56.688 12.8396C56.2698 12.3605 55.8253 11.8933 55.3665 11.4508C55.1344 11.2269 55.118 10.8508 55.3276 10.6058C55.3303 10.6029 55.3325 10.6001 55.3353 10.5972C55.5526 10.3522 55.9186 10.3379 56.1535 10.564C56.6358 11.03 57.1039 11.5218 57.5446 12.0261C57.746 12.2568 57.7438 12.6061 57.5495 12.8339C57.5363 12.8494 57.5221 12.8648 57.5067 12.8791L57.5062 12.8797ZM52.9937 9.45684C52.4823 9.08358 51.95 8.73036 51.4127 8.40519C51.1362 8.23803 51.0418 7.86878 51.202 7.57968C51.3639 7.29057 51.7167 7.19268 51.9933 7.35984C52.5591 7.70162 53.1188 8.07373 53.6572 8.46645C53.9195 8.65766 53.9831 9.03435 53.7998 9.30742C53.7867 9.32746 53.7724 9.34635 53.757 9.36353C53.5644 9.58908 53.2368 9.63374 52.9937 9.45627V9.45684ZM48.6772 7.00834C48.1004 6.76389 47.5061 6.54349 46.9112 6.35171C46.6056 6.25324 46.4344 5.9149 46.5288 5.59661C46.6231 5.27831 46.9469 5.09912 47.2526 5.19759C47.8793 5.39967 48.5048 5.6321 49.1123 5.88914C49.4087 6.01452 49.5513 6.36659 49.4312 6.6763C49.4054 6.74214 49.3702 6.80053 49.3269 6.85091C49.1688 7.03639 48.9098 7.10738 48.6766 7.00891L48.6772 7.00834ZM43.9441 5.62809C43.3289 5.52447 42.7017 5.44776 42.0811 5.3991C41.7622 5.37448 41.523 5.08424 41.5466 4.75162C41.5707 4.41901 41.8484 4.16941 42.1672 4.19403C42.8208 4.24498 43.4809 4.3257 44.1285 4.43447C44.444 4.48771 44.6586 4.79742 44.6081 5.12717C44.59 5.2451 44.5401 5.34929 44.4693 5.4323C44.3419 5.58115 44.1471 5.6613 43.9446 5.62752L43.9441 5.62809ZM39.0343 5.38307C38.4137 5.42429 37.7859 5.49413 37.1691 5.59088C36.8525 5.64011 36.5583 5.41284 36.5106 5.08252C36.4634 4.7522 36.6813 4.44477 36.9979 4.39611C37.6471 4.29478 38.3078 4.22151 38.9608 4.178C39.2796 4.15682 39.5551 4.40928 39.5754 4.74246C39.5858 4.9102 39.5293 5.06649 39.43 5.1827C39.3323 5.2972 39.1929 5.37334 39.0343 5.38364V5.38307ZM34.1948 6.27671C33.5978 6.46048 33.0007 6.67344 32.4201 6.9093C32.1222 7.03067 31.7863 6.87667 31.6705 6.56581C31.5542 6.25496 31.7013 5.9046 31.9998 5.78323C32.6106 5.53478 33.2389 5.31094 33.8678 5.11744C34.1745 5.02298 34.4966 5.20617 34.5872 5.52619C34.6459 5.734 34.5927 5.94868 34.4637 6.09924C34.394 6.18054 34.3029 6.24351 34.1954 6.27671H34.1948ZM18.7181 21.8476C18.413 21.7486 18.2418 21.4102 18.3367 21.0914C18.531 20.4387 18.7555 19.7861 19.0035 19.1518C19.1242 18.8427 19.4623 18.6944 19.7586 18.8209C20.0544 18.9468 20.1965 19.2995 20.0758 19.6081C19.8404 20.2103 19.6274 20.8303 19.4431 21.4497C19.4178 21.535 19.3761 21.6095 19.3229 21.6724C19.1764 21.8436 18.942 21.9203 18.7181 21.8476ZM29.6686 8.26608C29.1259 8.58381 28.5898 8.92959 28.075 9.29483C27.8105 9.4826 27.4506 9.41047 27.2706 9.13511C27.0906 8.85917 27.1603 8.48477 27.4242 8.29585C27.9664 7.91172 28.5311 7.54705 29.1029 7.21272C29.3816 7.04956 29.7345 7.15318 29.8909 7.444C30.0149 7.67471 29.9781 7.95408 29.8185 8.14128C29.7768 8.18994 29.7268 8.23231 29.6692 8.26608H29.6686ZM20.6284 16.9747C20.3518 16.8069 20.2585 16.4371 20.4193 16.1486C20.7486 15.5578 21.1069 14.9744 21.4839 14.4139C21.6666 14.1397 22.0288 14.075 22.2906 14.2662C22.5523 14.458 22.6154 14.8347 22.4321 15.1078C22.0738 15.6402 21.7336 16.1949 21.4208 16.7565C21.401 16.7926 21.378 16.8252 21.3522 16.855C21.1727 17.0651 20.8709 17.1218 20.6289 16.9747H20.6284ZM25.6825 11.2607C25.2215 11.697 24.7732 12.1595 24.3484 12.6358C24.1306 12.8803 23.7645 12.8946 23.5302 12.6673C23.2992 12.4435 23.2827 12.0679 23.4918 11.8235C23.4945 11.82 23.4973 11.8172 23.5 11.8143C23.9467 11.3128 24.4192 10.8256 24.9038 10.3665C25.1408 10.1427 25.5069 10.161 25.722 10.4083C25.9228 10.639 25.9201 10.9877 25.7258 11.2155C25.7121 11.2315 25.6973 11.247 25.6819 11.2619L25.6825 11.2607Z" fill="white"/>
<path d="M18.4727 25.8201C18.5484 25.7313 18.6 25.618 18.6148 25.4909C18.6505 25.1817 18.6933 24.868 18.741 24.5589C18.7921 24.2297 18.5775 23.9194 18.262 23.8662C17.9464 23.8129 17.6485 24.0362 17.598 24.366C17.5475 24.6911 17.5025 25.0209 17.4652 25.3466C17.4268 25.6775 17.6534 25.9786 17.9706 26.0187C18.1665 26.0433 18.3509 25.9632 18.4727 25.8201Z" fill="white"/>
</g>
<g opacity="0.3">
<path d="M23.3717 43.5129C23.5577 43.2953 23.5698 42.9627 23.3876 42.7297C23.1988 42.4887 23.0117 42.2391 22.8317 41.9884C22.6396 41.7216 22.2769 41.6672 22.0212 41.867C21.7644 42.0679 21.7133 42.4458 21.9048 42.7126C22.0947 42.9765 22.2912 43.2392 22.4898 43.4934C22.6918 43.7516 23.0567 43.7905 23.3047 43.5799C23.3289 43.5593 23.3514 43.5369 23.3717 43.5129Z" fill="white"/>
<path d="M56.9033 45.188C56.6794 45.4262 56.3129 45.4296 56.0846 45.1955C55.8563 44.9619 55.8536 44.58 56.0775 44.3413C56.5044 43.8885 56.9187 43.4093 57.3155 42.9124C57.518 42.6565 57.8851 42.621 58.1309 42.8346C58.3768 43.0481 58.4102 43.4288 58.2056 43.6853C58.0338 43.9005 57.8593 44.1123 57.682 44.3196C57.4291 44.6155 57.1673 44.9081 56.9033 45.188ZM59.2564 41.2099C58.9853 41.033 58.903 40.6608 59.072 40.3775C59.3969 39.8342 59.7037 39.2709 59.9835 38.703C60.1284 38.4058 60.4785 38.2891 60.7633 38.4413C61.0476 38.5936 61.1601 38.9577 61.0136 39.2543C60.7194 39.8525 60.3962 40.4456 60.0543 41.0169C60.0368 41.0467 60.0165 41.0742 59.9951 41.0994C59.8107 41.3152 59.499 41.3679 59.2564 41.2093V41.2099ZM54.5426 47.3726C54.0328 47.7831 53.4988 48.1764 52.9556 48.5416C52.6867 48.7225 52.3283 48.6418 52.1549 48.3613C51.9815 48.0808 52.0594 47.7075 52.3278 47.526C52.8436 47.1791 53.3507 46.8059 53.8347 46.416C54.0882 46.2122 54.4515 46.2609 54.6468 46.5253C54.8197 46.7589 54.8027 47.0829 54.621 47.2953C54.5975 47.3228 54.5711 47.3491 54.542 47.3726H54.5426ZM61.5217 36.5997C61.2199 36.4892 61.0607 36.1446 61.1667 35.8303C61.3692 35.2269 61.5497 34.6069 61.7022 33.988C61.7818 33.6646 62.0979 33.4705 62.4074 33.5541C62.7169 33.6371 62.9035 33.9668 62.8234 34.2897C62.662 34.9412 62.4727 35.5938 62.2592 36.2293C62.2335 36.306 62.1945 36.3741 62.1457 36.4314C61.9942 36.6088 61.7494 36.6833 61.5217 36.5997ZM50.1947 50.1291C49.6109 50.4125 49.0072 50.6735 48.4009 50.9054C48.1007 51.0199 47.7681 50.859 47.6584 50.5459C47.5481 50.2327 47.7028 49.8858 48.003 49.7707C48.5792 49.5503 49.1527 49.3024 49.7069 49.0334C49.9966 48.8925 50.3413 49.0236 50.4763 49.3265C50.5767 49.552 50.5322 49.8085 50.3835 49.9831C50.3325 50.0427 50.2694 50.093 50.1953 50.1285L50.1947 50.1291ZM45.3722 51.8236C44.7417 51.9673 44.098 52.0847 43.4593 52.1729C43.1421 52.2164 42.8512 51.9839 42.8095 51.653C42.7678 51.3216 42.9906 51.0182 43.3078 50.9752C43.9147 50.8916 44.5266 50.78 45.1258 50.6432C45.4381 50.5722 45.747 50.7789 45.8151 51.1046C45.8562 51.301 45.8003 51.4962 45.6812 51.6353C45.6027 51.7275 45.4968 51.795 45.3728 51.8231L45.3722 51.8236ZM40.3099 52.3818C39.664 52.379 39.011 52.3469 38.3695 52.2879C38.0507 52.2587 37.8158 51.9656 37.8438 51.633C37.8718 51.3004 38.1533 51.0548 38.4716 51.0846C39.0813 51.1407 39.7014 51.1704 40.3154 51.1733C40.6353 51.175 40.8933 51.4464 40.8916 51.7801C40.8911 51.9336 40.8356 52.0727 40.7451 52.1792C40.6386 52.304 40.4828 52.3824 40.3099 52.3818ZM35.2515 51.775C34.622 51.625 33.9915 51.4447 33.3769 51.2397C33.0723 51.1384 32.9044 50.7983 33.0015 50.48C33.0987 50.1629 33.4252 49.9871 33.7297 50.089C34.3131 50.2837 34.9118 50.4548 35.5099 50.5974C35.8216 50.6718 36.0164 50.9958 35.9451 51.321C35.9226 51.4235 35.8759 51.5139 35.8134 51.5878C35.6773 51.7469 35.4649 51.8259 35.2515 51.7756V51.775ZM30.4427 50.0226C29.8615 49.7318 29.2853 49.4118 28.7289 49.07C28.4534 48.9011 28.3612 48.5307 28.5231 48.2428C28.685 47.956 29.04 47.8592 29.3155 48.0281C29.844 48.3527 30.3916 48.6567 30.9437 48.9326C31.2318 49.0769 31.3536 49.4375 31.2153 49.7381C31.1912 49.7902 31.161 49.8377 31.1259 49.8789C30.9585 50.0747 30.6808 50.1406 30.4432 50.0215L30.4427 50.0226ZM26.1239 47.214C25.7508 46.9078 25.382 46.586 25.0281 46.2568C24.8996 46.1378 24.7734 46.0175 24.6483 45.8962C24.4145 45.6689 24.3937 45.2853 24.6187 45.0426C24.8365 44.7982 25.2026 44.7844 25.4369 45.0117C25.5554 45.1268 25.6761 45.2413 25.798 45.3546C26.1344 45.6672 26.4845 45.9735 26.8395 46.2643C27.0908 46.4704 27.1342 46.8505 26.9366 47.1127C26.929 47.1224 26.9213 47.1322 26.9136 47.1413C26.7116 47.3778 26.3654 47.4121 26.1234 47.214H26.1239Z" fill="white"/>
<path d="M63.2575 31.3689C63.3343 31.279 63.3859 31.1651 63.4002 31.0368C63.4364 30.7122 63.466 30.3802 63.4896 30.0504C63.5132 29.7178 63.274 29.4281 62.9551 29.4035C62.6363 29.3789 62.3586 29.6285 62.335 29.9611C62.3131 30.2743 62.284 30.5891 62.25 30.8977C62.2132 31.2292 62.441 31.5286 62.7587 31.5669C62.9535 31.5904 63.1368 31.5103 63.2581 31.3683L63.2575 31.3689Z" fill="white"/>
</g>
<path d="M57.1003 23.2478C57.0822 23.1287 56.9933 23.0349 56.8797 23.0143L53.6354 22.4217C53.0521 20.9367 52.2383 19.5382 51.2017 18.2901L52.1576 15.0041C52.1911 14.889 52.151 14.7642 52.0572 14.6933L48.8574 12.2762C48.7641 12.2053 48.6379 12.2047 48.5435 12.2739L45.8496 14.2467C44.3894 13.609 42.8616 13.2386 41.3273 13.1241L39.7748 10.0939C39.7205 9.98746 39.6075 9.92907 39.4933 9.94853L35.5922 10.6C35.4781 10.6189 35.3881 10.7117 35.3683 10.8302L34.8003 14.2147C33.3769 14.8232 32.0362 15.6722 30.8399 16.7536L27.6901 15.7563C27.5798 15.7214 27.4601 15.7632 27.3921 15.8611L25.0752 19.1992C25.0077 19.2966 25.0066 19.4282 25.073 19.5273L26.964 22.3376C26.3527 23.861 25.9977 25.4547 25.8879 27.0554L22.9828 28.6749C22.8807 28.7316 22.8247 28.8495 22.8434 28.9686L23.4679 33.0384C23.486 33.1575 23.5749 33.2508 23.6885 33.272L26.9328 33.8645C27.5155 35.3495 28.3299 36.7481 29.3665 37.9961L28.4106 41.2821C28.3771 41.3972 28.4172 41.522 28.511 41.593L31.7114 44.01C31.8047 44.0804 31.9309 44.0815 32.0253 44.0123L34.7191 42.0395C36.1794 42.6772 37.7071 43.0476 39.2415 43.1621L40.7939 46.1923C40.8482 46.2987 40.9613 46.3571 41.0754 46.3382L44.9765 45.6868C45.0907 45.6679 45.1801 45.5751 45.2004 45.4566L45.7684 42.0721C47.1919 41.4636 48.5325 40.6146 49.7288 39.5332L52.8787 40.5304C52.989 40.5654 53.1086 40.5236 53.1767 40.4257L55.4935 37.087C55.561 36.9896 55.5621 36.858 55.4957 36.7589L53.6047 33.9486C54.216 32.4253 54.5711 30.8315 54.6808 29.2308L57.586 27.6113C57.688 27.5546 57.744 27.4367 57.7253 27.3176L57.1009 23.2478H57.1003Z" fill="white"/>
<path d="M42.8329 31.3204C41.1537 32.7865 38.6442 32.5541 37.2388 30.8023C36.5578 29.9539 36.2346 28.8793 36.3284 27.7773C36.4223 26.6753 36.9216 25.6769 37.7354 24.967C39.4146 23.5009 41.9241 23.7333 43.3295 25.4851C44.6081 27.0789 44.539 29.3894 43.2516 30.8973C43.1237 31.0467 42.9843 31.1887 42.8329 31.3209V31.3204ZM37.2514 27.8626C37.1795 28.7076 37.4276 29.5314 37.9495 30.1823C39.0267 31.5253 40.9512 31.7034 42.2386 30.5796C43.5265 29.4558 43.6966 27.4481 42.6194 26.1051C41.5422 24.762 39.6177 24.584 38.3303 25.7078C38.2134 25.8097 38.1053 25.919 38.006 26.0358C37.5741 26.5413 37.3102 27.1762 37.2514 27.8626Z" fill="black"/>
<path d="M47.4812 34.9396C47.7023 34.6808 47.912 34.4083 48.1101 34.1238C48.1721 34.0345 48.233 33.9435 48.2928 33.8519C48.5858 33.3996 48.8438 32.9239 49.0633 32.4321C49.066 32.4252 49.0693 32.4189 49.072 32.4121C49.0803 32.3932 49.0891 32.3737 49.0973 32.3548C49.1138 32.3176 49.1297 32.2804 49.145 32.2432C49.1867 32.1447 49.1604 32.0337 49.0874 31.9655C49.0699 31.9489 49.049 31.9352 49.0265 31.9249C48.9096 31.8711 48.773 31.9272 48.7214 32.0491C48.4563 32.6777 48.1249 33.2805 47.7353 33.841C45.8025 36.6267 42.7059 38.0235 39.6367 37.8335C37.9295 37.7281 36.2311 37.1316 34.7461 36.0101C34.4854 35.8138 34.2369 35.6048 33.9998 35.3844C32.4062 33.9034 31.3581 31.9123 31.0162 29.6842C30.6233 27.1247 31.2094 24.5594 32.6663 22.4601C35.6757 18.1247 41.5008 17.1532 45.6549 20.291C45.9112 20.4845 46.157 20.6905 46.3914 20.9087C47.4077 21.8532 48.2149 23.0194 48.7505 24.3269C48.7642 24.3607 48.7845 24.3893 48.8092 24.4122C48.8739 24.4723 48.9689 24.4918 49.0545 24.454C49.1719 24.4014 49.2268 24.26 49.1763 24.1369C48.6138 22.7646 47.7665 21.5401 46.6998 20.548C46.4534 20.319 46.1954 20.1026 45.9266 19.8994C41.565 16.6053 35.4474 17.6283 32.291 22.1767C30.7616 24.3808 30.1464 27.0743 30.5585 29.7609C30.9174 32.1001 32.0177 34.1902 33.6908 35.7451C33.9394 35.9758 34.2006 36.1956 34.4739 36.4017C36.5867 37.9972 39.1686 38.6395 41.7439 38.209C43.9867 37.8346 45.9908 36.6862 47.4812 34.9402V34.9396Z" fill="black"/>
<g opacity="0.3">
<path d="M82.0852 8.02851C82.1884 7.90771 82.2076 7.72681 82.1214 7.58312C81.9607 7.31462 81.79 7.04728 81.6144 6.78851C81.5003 6.62078 81.2769 6.58128 81.1156 6.70035C80.9537 6.81943 80.9169 7.05243 81.0311 7.22074C81.199 7.4669 81.3614 7.72166 81.5145 7.97813C81.6188 8.15273 81.8394 8.20598 82.0073 8.0972C82.0369 8.07774 82.0627 8.05427 82.0852 8.02851Z" fill="white"/>
<path d="M80.3955 5.77063C80.2495 5.90974 80.0235 5.89944 79.8901 5.74716C79.5532 5.3636 79.1937 4.99377 78.8217 4.64799C78.7432 4.57529 78.6636 4.50258 78.583 4.43102C78.4332 4.29706 78.415 4.06177 78.5435 3.90492C78.6702 3.7618 78.8974 3.72974 79.0478 3.8637C79.1317 3.93869 79.2151 4.01426 79.2975 4.0904C79.6876 4.45278 80.0646 4.84092 80.4175 5.2428C80.5426 5.38478 80.5415 5.60117 80.4213 5.74258C80.4131 5.75174 80.4049 5.7609 80.3955 5.77006V5.77063ZM77.1326 3.29122C76.6288 2.94315 76.0993 2.62485 75.5598 2.34433C75.3831 2.25216 75.3113 2.0289 75.3991 1.84399C75.4869 1.66079 75.7014 1.58408 75.8787 1.67625C76.4445 1.96993 76.9992 2.30369 77.5271 2.66893C77.6918 2.78285 77.7368 3.01414 77.6281 3.18645C77.6188 3.20134 77.6078 3.21565 77.5968 3.22882C77.4805 3.36507 77.283 3.39484 77.1326 3.29122ZM73.8861 1.60755C73.3165 1.39917 72.7288 1.22628 72.1383 1.09289C71.9457 1.04938 71.8228 0.850732 71.8645 0.649219C71.9067 0.447134 72.0961 0.31947 72.2898 0.363551C72.9088 0.503237 73.5256 0.685285 74.1232 0.9034C74.3098 0.971526 74.408 1.18449 74.3427 1.37913C74.3268 1.42665 74.3026 1.46844 74.2725 1.50393C74.1792 1.61328 74.0277 1.65965 73.8872 1.60812L73.8861 1.60755ZM70.3428 0.807796C69.7408 0.751693 69.13 0.733374 68.528 0.755128C68.3305 0.761998 68.1648 0.600558 68.1582 0.395038C68.1516 0.189517 68.3058 0.0166284 68.5033 0.00918617C69.135 -0.0131406 69.7754 0.00517876 70.407 0.0647167C70.6034 0.0830361 70.7489 0.264512 70.7313 0.470033C70.7242 0.55247 70.6918 0.626893 70.6424 0.684141C70.5694 0.76944 70.4608 0.818673 70.3433 0.807796H70.3428ZM66.7199 0.934887C66.1234 1.03278 65.5269 1.17075 64.9468 1.34364C64.7569 1.40031 64.5588 1.28582 64.5045 1.08774C64.4502 0.889661 64.5599 0.682996 64.7498 0.62632C65.3573 0.444844 65.9829 0.300579 66.6079 0.197532C66.8033 0.165473 66.986 0.304586 67.0167 0.507817C67.0343 0.622885 66.9992 0.733946 66.9306 0.814093C66.8774 0.876494 66.8044 0.920575 66.7193 0.934315L66.7199 0.934887ZM63.2358 1.97508C62.6804 2.22125 62.135 2.50635 61.6136 2.82178C61.443 2.9254 61.224 2.86472 61.1247 2.68668C61.0259 2.50864 61.0836 2.28079 61.2542 2.1766C61.8008 1.8457 62.3731 1.54687 62.9559 1.28868C63.1376 1.20853 63.3477 1.29669 63.4251 1.48619C63.4811 1.62358 63.452 1.77643 63.3631 1.88062C63.3291 1.9207 63.2863 1.95333 63.2358 1.97566V1.97508ZM60.1029 3.87228C59.6238 4.25184 59.1612 4.66803 58.7283 5.10999C58.5867 5.25368 58.3606 5.25082 58.2223 5.10369C58.084 4.95656 58.089 4.72242 58.2283 4.57586C58.6827 4.1133 59.1673 3.67707 59.6699 3.27862C59.8274 3.15382 60.0519 3.18588 60.171 3.35018C60.2763 3.49445 60.2648 3.6931 60.1534 3.82362C60.138 3.84137 60.1216 3.85797 60.1024 3.87286L60.1029 3.87228ZM55.9729 8.1865C55.8045 8.0783 55.7523 7.84873 55.8561 7.67355C56.1425 7.18752 56.4597 6.71007 56.7972 6.25495C56.8482 6.18568 56.8998 6.11698 56.9519 6.04885C57.0705 5.88512 57.3004 5.86165 57.4546 5.99103C57.6088 6.11984 57.6335 6.35456 57.51 6.51543C57.4606 6.57897 57.4123 6.64366 57.3635 6.71007C57.0403 7.14573 56.7379 7.60142 56.4646 8.06456C56.4537 8.08345 56.4405 8.1012 56.4268 8.11723C56.3137 8.25004 56.1222 8.28267 55.9724 8.1865H55.9729Z" fill="white"/>
</g>
<g opacity="0.3">
<path d="M80.4042 26.9978C79.9839 27.4775 79.5311 27.9349 79.0598 28.3568C78.9099 28.4908 78.6844 28.473 78.5554 28.3167C78.4265 28.1605 78.4462 27.9252 78.5939 27.7906C79.0433 27.3882 79.4746 26.952 79.8758 26.494C80.0091 26.3417 80.2352 26.3314 80.3812 26.4705C80.5255 26.6085 80.537 26.842 80.407 26.9937C80.4059 26.9949 80.4048 26.9966 80.4037 26.9978H80.4042ZM81.0836 25.5648C80.9228 25.4452 80.886 25.2122 81.0007 25.0444C81.3459 24.5401 81.6658 24.0088 81.9506 23.4655C82.0456 23.2864 82.2629 23.2182 82.4363 23.3173C82.6097 23.4163 82.6728 23.6424 82.5784 23.8233C82.2799 24.393 81.9446 24.9494 81.5824 25.4778C81.5747 25.4893 81.567 25.4996 81.5583 25.5093C81.4386 25.6496 81.2339 25.6765 81.0836 25.5643V25.5648ZM77.566 29.5361C77.0464 29.8962 76.5014 30.226 75.9461 30.5162C75.7694 30.6084 75.5543 30.534 75.4659 30.3502C75.377 30.1659 75.4484 29.9426 75.6251 29.8493C76.1552 29.5722 76.6748 29.2573 77.1704 28.9144C77.335 28.8005 77.5567 28.8474 77.6659 29.0186C77.7576 29.1629 77.7405 29.3495 77.6352 29.4732C77.6154 29.4966 77.5918 29.5178 77.5655 29.5361H77.566ZM82.911 22.2639C82.7277 22.1878 82.6377 21.9708 82.7107 21.7796C82.9296 21.2037 83.1167 20.6077 83.2671 20.0089C83.317 19.8097 83.5129 19.6906 83.7034 19.7421C83.8943 19.7942 84.009 19.998 83.9591 20.1973C83.8016 20.8258 83.6057 21.4504 83.3758 22.055C83.3598 22.0967 83.3373 22.134 83.3105 22.1654C83.2133 22.2794 83.0547 22.3234 82.9115 22.2639H82.911ZM74.2252 31.2839C73.6391 31.5026 73.0344 31.6858 72.4269 31.8289C72.2343 31.8741 72.0428 31.7482 71.9994 31.5473C71.9561 31.3463 72.0762 31.1465 72.2694 31.1013C72.8489 30.965 73.4256 30.7899 73.9843 30.5815C74.1703 30.5122 74.375 30.613 74.4414 30.8076C74.4869 30.9404 74.4557 31.083 74.3717 31.1814C74.3333 31.2267 74.2839 31.2627 74.2252 31.2845V31.2839ZM70.5798 32.1444C69.9597 32.2102 69.3297 32.2371 68.7085 32.2251C68.5109 32.2211 68.354 32.051 68.3578 31.8449C68.3611 31.6394 68.5247 31.4751 68.7222 31.4791C69.3149 31.4906 69.9152 31.4648 70.5073 31.4018C70.7038 31.3812 70.8794 31.5301 70.8991 31.7356C70.9096 31.8438 70.8744 31.9463 70.8102 32.0218C70.7526 32.0888 70.672 32.1352 70.5798 32.1449V32.1444ZM66.8411 32.0694C66.2232 31.9783 65.6058 31.8467 65.0055 31.6789C64.8145 31.6257 64.7015 31.4207 64.7525 31.2221C64.8035 31.0229 65 30.9055 65.1904 30.9582C65.7628 31.1185 66.3521 31.2438 66.9409 31.3303C67.1363 31.3589 67.2729 31.5478 67.245 31.7522C67.2351 31.8278 67.2032 31.8947 67.1582 31.948C67.0814 32.0379 66.964 32.0877 66.8411 32.0699V32.0694Z" fill="white"/>
<path d="M84.2363 18.4604C84.2824 18.4066 84.3137 18.3384 84.3236 18.2617C84.3642 17.9451 84.396 17.6263 84.4179 17.3131C84.4322 17.1076 84.2846 16.9284 84.0876 16.9135C83.8911 16.8992 83.7194 17.0526 83.7046 17.2582C83.6837 17.5564 83.653 17.861 83.6146 18.1632C83.5882 18.3676 83.726 18.5554 83.9219 18.5823C84.0442 18.5989 84.16 18.5497 84.2363 18.4604Z" fill="white"/>
</g>
<path d="M80.1713 12.7635C80.1592 12.684 80.1 12.621 80.0237 12.6072L77.8528 12.2105C77.4626 11.2167 76.9177 10.2813 76.2241 9.44601L76.8634 7.24711C76.8859 7.16983 76.859 7.08682 76.7964 7.0393L74.6552 5.42205C74.5926 5.37453 74.5081 5.37396 74.445 5.42033L72.6423 6.74047C71.6655 6.3134 70.6432 6.06552 69.6165 5.98938L68.5777 3.96165C68.5414 3.89066 68.4657 3.85116 68.3894 3.86433L65.779 4.30056C65.7027 4.31315 65.6423 4.37498 65.6292 4.45456L65.2489 6.71929C64.2962 7.12632 63.3996 7.69479 62.5989 8.41841L60.4911 7.75147C60.417 7.728 60.3369 7.75605 60.2919 7.82131L58.7417 10.0551C58.6961 10.1204 58.6956 10.2086 58.74 10.2744L60.0055 12.155C59.5961 13.174 59.3585 14.2405 59.2855 15.3116L57.3418 16.3954C57.2737 16.4331 57.2359 16.5121 57.2485 16.5917L57.6667 19.315C57.6787 19.3946 57.738 19.4575 57.8143 19.4713L59.9852 19.868C60.3753 20.8618 60.9203 21.7973 61.6139 22.6325L60.9746 24.8314C60.9521 24.9087 60.979 24.9917 61.0415 25.0392L63.1828 26.6565C63.2454 26.704 63.3299 26.7046 63.393 26.6582L65.1956 25.3381C66.1724 25.7651 67.1948 26.013 68.2215 26.0892L69.2603 28.1169C69.2965 28.1879 69.3723 28.2274 69.4485 28.2142L72.059 27.778C72.1353 27.7654 72.1956 27.7036 72.2088 27.624L72.5891 25.3592C73.5417 24.9522 74.4384 24.3837 75.2391 23.6601L77.3468 24.3271C77.4209 24.3505 77.5005 24.3225 77.546 24.2572L79.0963 22.0234C79.1418 21.9581 79.1424 21.87 79.0979 21.8041L77.8325 19.9235C78.2419 18.9045 78.4789 17.838 78.5525 16.7669L80.4962 15.6832C80.5642 15.6454 80.6021 15.5664 80.5895 15.4868L80.1719 12.7635H80.1713Z" fill="white"/>
<path d="M70.6548 18.2033C70.1006 18.6876 69.3993 18.9171 68.6793 18.8502C67.9599 18.7837 67.3079 18.4288 66.8442 17.8506C65.8872 16.6576 66.0387 14.8771 67.1823 13.8753C68.3264 12.8769 70.0358 13.0355 70.9929 14.2285C71.4566 14.8067 71.6772 15.5384 71.613 16.2895C71.5608 16.8997 71.3265 17.4636 70.9424 17.913C70.854 18.016 70.758 18.1139 70.6543 18.2044L70.6548 18.2033ZM67.3925 17.3714C67.7338 17.7968 68.2128 18.0578 68.7424 18.1071C69.2714 18.1563 69.7878 17.9869 70.1955 17.6313C70.6027 17.2747 70.8535 16.7755 70.9007 16.223C70.9479 15.6712 70.7854 15.1325 70.4447 14.7077C69.7406 13.8301 68.4834 13.7133 67.6416 14.4478C67.5659 14.5142 67.4956 14.5852 67.432 14.6602C66.7866 15.4158 66.7521 16.574 67.393 17.372L67.3925 17.3714Z" fill="black"/>
<path d="M73.8893 20.7224C74.0396 20.546 74.1828 20.3606 74.3184 20.1653C74.5873 19.7778 74.8189 19.3616 75.0071 18.9265C75.0153 18.907 75.0235 18.8876 75.0318 18.8675C75.096 18.7158 75.0554 18.5435 74.9429 18.4387C74.9154 18.4136 74.8836 18.3918 74.8485 18.3758C74.6679 18.2928 74.4572 18.3792 74.3771 18.567C74.2053 18.9746 73.9902 19.365 73.7389 19.7268C73.7252 19.7469 73.7109 19.7669 73.6972 19.7864C73.0946 20.6376 72.311 21.3 71.4154 21.7351C70.9292 21.9715 70.4096 22.141 69.8668 22.2366C69.8624 22.2372 69.8581 22.2383 69.8537 22.2389C69.84 22.2412 69.8268 22.2434 69.8131 22.2457C68.2249 22.5108 66.6324 22.1152 65.3297 21.1311C65.1612 21.004 64.9999 20.8689 64.8468 20.7264C63.8151 19.7675 63.1368 18.4788 62.9151 17.0362C62.6611 15.3794 63.0408 13.7186 63.9836 12.3596C64.9269 11.0017 66.3207 10.1057 67.9089 9.84066C69.497 9.5756 71.0895 9.97119 72.3922 10.9553C72.558 11.0801 72.7171 11.214 72.8691 11.3549C73.5271 11.9669 74.0495 12.7214 74.3963 13.5675C74.4177 13.6196 74.449 13.6643 74.4874 13.6992C74.5873 13.7925 74.7343 13.8223 74.866 13.7639C75.0477 13.6826 75.1322 13.4639 75.0543 13.2738C74.6663 12.3269 74.0819 11.4825 73.346 10.7978C73.1759 10.6398 72.9981 10.4904 72.8126 10.3502C71.3551 9.24929 69.5738 8.80619 67.7964 9.10331C66.0195 9.40042 64.4594 10.3994 63.4046 11.9216C62.3494 13.4421 61.9246 15.3004 62.2094 17.1541C62.4569 18.7679 63.2159 20.21 64.3705 21.2828C64.5417 21.442 64.7222 21.5937 64.9104 21.7357C67.7327 23.867 71.6196 23.3792 73.8887 20.7218L73.8893 20.7224Z" fill="black"/>
<path d="M11.0719 122.805C11.0719 124.213 12.1777 125.366 13.5293 125.366H146.403C147.755 125.366 148.861 124.213 148.861 122.805L149.966 43.1453C149.966 41.737 148.376 38.9868 145.461 39.1935L15.6014 35.6882C13.9057 35.6424 12.266 36.3231 11.0653 37.5717C9.86463 38.8202 9.20776 40.5274 9.24782 42.2946L11.0725 122.805H11.0719Z" fill="white"/>
<path d="M13.4988 120.348C13.4988 121.682 14.5447 122.773 15.8233 122.773H143.2C144.479 122.773 145.524 121.682 145.524 120.348L146.568 48.0326C146.445 43.6806 142.788 42.1165 140.571 42.2093L16.1125 38.7257C14.9212 38.6925 13.7693 39.1711 12.9259 40.0493C12.0819 40.9275 11.6182 42.1286 11.6478 43.3714L13.4988 120.348Z" fill="#D0DDD1"/>
<path opacity="0.4" d="M144.147 76.055H144.144C143.954 76.0527 143.804 75.9285 143.807 75.7768L143.889 71.2513C143.892 71.1014 144.044 70.9811 144.229 70.9811H144.234C144.422 70.9834 144.573 71.1077 144.57 71.2594L144.488 75.7848C144.485 75.9348 144.333 76.055 144.147 76.055Z" fill="white"/>
<path opacity="0.4" d="M144.35 64.9655H144.345C144.157 64.9632 144.006 64.8384 144.009 64.6873L144.325 47.3549C144.319 46.3255 143.931 45.5035 143.171 44.9172C141.753 43.8232 139.501 43.8793 139.406 43.8828L99.6265 43.024C99.4383 43.02 99.2901 42.8941 99.295 42.7424C99.3 42.5913 99.4443 42.4619 99.6446 42.4756L139.401 43.3343C139.648 43.3223 142.046 43.2891 143.642 44.5205C144.54 45.2132 144.999 46.1681 145.006 47.3572L144.69 64.6953C144.687 64.8453 144.535 64.9655 144.349 64.9655H144.35Z" fill="white"/>
<path d="M5.38356 131.979L154.692 131.979C154.863 131.979 155.002 131.834 155.002 131.656V125.303C155.002 125.125 154.863 124.98 154.692 124.98L5.38356 124.98C5.21233 124.98 5.07352 125.125 5.07352 125.303V131.656C5.07352 131.834 5.21233 131.979 5.38356 131.979Z" fill="#FCFFFD"/>
<path opacity="0.4" d="M70.3957 94.123H18.8567C18.3221 94.123 17.8887 94.5752 17.8887 95.1329V117.882C17.8887 118.44 18.3221 118.892 18.8567 118.892H70.3957C70.9303 118.892 71.3637 118.44 71.3637 117.882V95.1329C71.3637 94.5752 70.9303 94.123 70.3957 94.123Z" fill="#7D97F4"/>
<path opacity="0.4" d="M139.904 54.4787H18.9043C17.5829 54.4787 16.5117 53.3612 16.5117 51.9826V46.3472C16.5117 44.4517 18 42.9237 19.8164 42.9541L139.904 44.9474C141.225 44.9474 142.296 46.0649 142.296 47.4434V51.9832C142.296 53.3617 141.225 54.4792 139.904 54.4792L139.904 54.4787Z" fill="#7D97F4"/>
<path opacity="0.4" d="M69.4465 57.7729H17.9075C17.3728 57.7729 16.9395 58.2251 16.9395 58.7828V90.9344C16.9395 91.4922 17.3728 91.9443 17.9075 91.9443H69.4465C69.9811 91.9443 70.4145 91.4922 70.4145 90.9344V58.7828C70.4145 58.2251 69.9811 57.7729 69.4465 57.7729Z" fill="#7D97F4"/>
<path opacity="0.4" d="M140.047 58.1733H74.2778C73.7274 58.1733 73.2812 58.6388 73.2812 59.213V117.852C73.2812 118.426 73.7274 118.892 74.2778 118.892H140.047C140.597 118.892 141.043 118.426 141.043 117.852V59.213C141.043 58.6388 140.597 58.1733 140.047 58.1733Z" fill="#7D97F4"/>
<path d="M47.1105 95.5839C45.0526 88.5447 40.9858 82.9 36.1336 79.547C31.7962 76.5495 28.6968 71.933 27.5878 66.6358C27.4709 66.0788 27.3315 65.5201 27.168 64.9613C24.6931 56.4949 17.714 51.2138 11.5799 53.166C5.44587 55.1175 2.48037 63.5628 4.95527 72.0292C5.46123 73.7604 6.15596 75.3582 6.99282 76.7876C9.66473 81.3503 10.6712 86.7912 9.6148 92.0253C8.67093 96.7025 8.85751 101.987 10.4006 107.265C12.7021 115.136 17.5142 121.264 23.128 124.393C25.2517 125.577 27.1609 127.156 28.7358 129.053C31.3528 132.205 35.0723 133.723 38.5164 132.627C42.2315 131.445 44.5856 127.553 44.8008 122.976C44.9226 120.386 45.5312 117.855 46.5052 115.467C48.8045 109.83 49.1908 102.701 47.1099 95.5839H47.1105Z" fill="#D3F4E0"/>
<path opacity="0.57" d="M16.3618 61.4884C18.7988 66.8285 21.0696 72.2464 23.286 77.689C23.8408 79.0492 24.3742 80.4186 24.912 81.7862L25.7187 83.838L26.5089 85.8966C27.0308 87.2712 27.5702 88.6382 28.0773 90.0191L29.5979 94.161C30.5774 96.9358 31.58 99.702 32.5101 102.496C32.9771 103.892 33.4699 105.278 33.91 106.685L35.2479 110.896C36.9771 116.529 38.5718 122.21 39.8871 127.964L39.6501 128.026L38.5086 123.76L38.2255 122.693L37.9171 121.634L37.2959 119.516L36.6791 117.398C36.4744 116.692 36.245 115.993 36.0293 115.29C35.5887 113.887 35.159 112.481 34.7096 111.081C32.8773 105.494 30.9742 99.9327 28.9613 94.4129C27.9346 91.6609 26.9309 88.8999 25.8855 86.1554L25.1074 84.0945L24.3122 82.0404C23.7832 80.671 23.2537 79.3011 22.7115 77.9374C21.6491 75.1998 20.5675 72.4697 19.465 69.7493C18.3763 67.0225 17.2623 64.3061 16.1406 61.5943L16.3629 61.4878L16.3618 61.4884Z" fill="white"/>
<g opacity="0.5">
<path d="M10.4748 78.1267C10.4155 78.1209 10.3595 78.0883 10.3239 78.0328C6.04133 71.3983 6.18621 66.0937 7.06148 62.8122C8.01303 59.2474 9.95564 57.2872 10.0374 57.2054C10.1197 57.1235 10.2498 57.1269 10.3282 57.2128C10.4067 57.2987 10.4034 57.4344 10.3217 57.5162C10.3025 57.5357 8.36917 59.4907 7.4522 62.9496C6.60656 66.1401 6.47705 71.305 10.6652 77.7929C10.7288 77.8914 10.7036 78.0248 10.6092 78.0912C10.5681 78.1204 10.5203 78.1312 10.4748 78.1267Z" fill="white"/>
</g>
<path d="M28.3998 115.234C26.782 111.828 24.2561 109.309 21.5172 108.025C19.0687 106.878 17.1184 104.797 16.124 102.195C16.0198 101.922 15.9034 101.65 15.7745 101.379C13.8286 97.283 9.85169 95.2032 6.89168 96.734C3.93167 98.2642 3.10907 102.825 5.05498 106.921C5.45283 107.759 5.93574 108.512 6.47736 109.167C8.20596 111.257 9.1597 113.94 9.04776 116.699C8.94733 119.164 9.4714 121.839 10.6842 124.392C12.4934 128.2 15.4375 130.901 18.5457 132.004C19.7217 132.421 20.8203 133.058 21.7752 133.887C23.3616 135.264 25.3761 135.711 27.0378 134.852C28.8306 133.925 29.7119 131.737 29.4496 129.387C29.3014 128.057 29.4051 126.715 29.7064 125.413C30.4176 122.341 30.0356 118.676 28.3998 115.233V115.234Z" fill="#C6D4C6"/>
<path opacity="0.57" d="M9.99825 100.556C11.6709 103.063 13.265 105.624 14.8339 108.202C15.2263 108.847 15.6088 109.498 15.9935 110.147L16.5702 111.122L17.1393 112.101C17.5163 112.755 17.9015 113.405 18.2714 114.064L19.3804 116.04C20.1037 117.368 20.8379 118.689 21.5376 120.031C21.8882 120.701 22.2515 121.364 22.5896 122.042L23.6113 124.07C24.9481 126.788 26.2196 129.542 27.3555 132.358L27.2397 132.41L26.3129 130.337L26.0824 129.819L25.8393 129.306L25.3515 128.282L24.8658 127.258C24.7045 126.916 24.5311 126.58 24.3642 126.241C24.0262 125.565 23.6937 124.886 23.3518 124.212C21.9667 121.527 20.5476 118.86 19.0764 116.225C18.3312 114.913 17.5964 113.594 16.8424 112.288L16.2794 111.306L15.7086 110.329C15.3284 109.678 14.9481 109.026 14.5617 108.379C13.7995 107.078 13.028 105.782 12.2465 104.493C11.4717 103.199 10.6847 101.913 9.89453 100.63L9.9988 100.556L9.99825 100.556Z" fill="white"/>
<g opacity="0.5">
<path d="M9.18787 109.372C9.15549 109.376 9.12147 109.366 9.09568 109.341C6.04018 106.303 5.51612 103.434 5.61434 101.561C5.72135 99.5269 6.54285 98.2331 6.57797 98.1787C6.61309 98.1243 6.68333 98.11 6.73491 98.1467C6.78704 98.1833 6.80076 98.2566 6.76564 98.311C6.75741 98.3236 5.94031 99.6139 5.83988 101.587C5.74714 103.407 6.26408 106.199 9.25208 109.17C9.29762 109.215 9.29927 109.289 9.25592 109.337C9.23726 109.358 9.21256 109.37 9.18787 109.373V109.372Z" fill="white"/>
</g>
<path d="M107.054 27.3308C106.984 27.3308 106.914 27.3142 106.847 27.2793C106.623 27.1602 106.533 26.874 106.647 26.6398L107.253 25.3947C107.367 25.1605 107.642 25.0672 107.866 25.1857C108.09 25.3048 108.18 25.591 108.066 25.8252L107.46 27.0703C107.38 27.2358 107.22 27.3308 107.053 27.3308H107.054Z" fill="url(#paint0_linear_18_4210)"/>
<path d="M136.063 27.1245H80.4699C80.1047 27.1245 79.8086 27.4334 79.8086 27.8143V103.03C79.8086 103.411 80.1047 103.72 80.4699 103.72H136.063C136.428 103.72 136.724 103.411 136.724 103.03V27.8143C136.724 27.4334 136.428 27.1245 136.063 27.1245Z" fill="white"/>
<path d="M132.954 28.4463H83.9751C82.7613 28.4463 81.7773 29.4728 81.7773 30.7391V100.137C81.7773 101.404 82.7613 102.43 83.9751 102.43H132.954C134.168 102.43 135.152 101.404 135.152 100.137V30.7391C135.152 29.4728 134.168 28.4463 132.954 28.4463Z" fill="#819EFF"/>
<path opacity="0.94" d="M108.078 63.2502C115.483 63.2502 121.486 56.9878 121.486 49.2628C121.486 41.5378 115.483 35.2754 108.078 35.2754C100.673 35.2754 94.6699 41.5378 94.6699 49.2628C94.6699 56.9878 100.673 63.2502 108.078 63.2502Z" fill="white"/>
<path d="M112.182 43.9778C112.182 46.3461 110.342 48.9034 108.072 48.9034C105.801 48.9034 103.961 46.3467 103.961 43.9778C103.961 41.6089 105.801 39.9292 108.072 39.9292C110.342 39.9292 112.182 41.6094 112.182 43.9778Z" fill="black"/>
<path d="M102.97 58.0219H113.005C114.062 58.0219 114.997 57.3097 115.319 56.2598L115.859 54.4988C116.254 53.2096 115.611 51.8139 114.393 51.349C110.309 49.7913 106.087 49.9911 101.761 51.4927C100.549 51.9135 99.8763 53.2657 100.21 54.5515L100.626 56.1504C100.913 57.2547 101.874 58.0207 102.971 58.0207L102.97 58.0219Z" fill="black"/>
<path opacity="0.94" d="M127.185 87.5699H88.9129C88.7108 87.5699 88.5469 87.7408 88.5469 87.9517V93.8339C88.5469 94.0448 88.7108 94.2158 88.9129 94.2158H127.185C127.387 94.2158 127.551 94.0448 127.551 93.8339V87.9517C127.551 87.7408 127.387 87.5699 127.185 87.5699Z" fill="white"/>
<path d="M92.7729 92.9949C93.8857 92.9949 94.7879 92.0537 94.7879 90.8927C94.7879 89.7317 93.8857 88.7906 92.7729 88.7906C91.66 88.7906 90.7578 89.7317 90.7578 90.8927C90.7578 92.0537 91.66 92.9949 92.7729 92.9949Z" fill="black"/>
<path d="M97.8432 92.9949C98.9561 92.9949 99.8582 92.0537 99.8582 90.8927C99.8582 89.7317 98.9561 88.7906 97.8432 88.7906C96.7303 88.7906 95.8281 89.7317 95.8281 90.8927C95.8281 92.0537 96.7303 92.9949 97.8432 92.9949Z" fill="black"/>
<path d="M102.79 92.9949C103.903 92.9949 104.805 92.0537 104.805 90.8927C104.805 89.7317 103.903 88.7906 102.79 88.7906C101.678 88.7906 100.775 89.7317 100.775 90.8927C100.775 92.0537 101.678 92.9949 102.79 92.9949Z" fill="black"/>
<path d="M107.861 92.9949C108.974 92.9949 109.876 92.0537 109.876 90.8927C109.876 89.7317 108.974 88.7906 107.861 88.7906C106.748 88.7906 105.846 89.7317 105.846 90.8927C105.846 92.0537 106.748 92.9949 107.861 92.9949Z" fill="black"/>
<path d="M113.076 92.9949C114.188 92.9949 115.091 92.0537 115.091 90.8927C115.091 89.7317 114.188 88.7906 113.076 88.7906C111.963 88.7906 111.061 89.7317 111.061 90.8927C111.061 92.0537 111.963 92.9949 113.076 92.9949Z" fill="black"/>
<path d="M118.148 92.9949C119.261 92.9949 120.163 92.0537 120.163 90.8927C120.163 89.7317 119.261 88.7906 118.148 88.7906C117.035 88.7906 116.133 89.7317 116.133 90.8927C116.133 92.0537 117.035 92.9949 118.148 92.9949Z" fill="black"/>
<path d="M123.267 92.9949C124.38 92.9949 125.282 92.0537 125.282 90.8927C125.282 89.7317 124.38 88.7906 123.267 88.7906C122.154 88.7906 121.252 89.7317 121.252 90.8927C121.252 92.0537 122.154 92.9949 123.267 92.9949Z" fill="black"/>
<path d="M111.459 70.0992L110.895 70.3413C110.615 70.4616 110.294 70.3219 110.179 70.0299L109.386 68.0188C109.103 67.2986 108.313 66.9551 107.623 67.2517L104.128 68.751C103.438 69.047 103.108 69.8708 103.393 70.5904L104.186 72.6015C104.301 72.8934 104.167 73.2278 103.887 73.348L103.323 73.5902C103.043 73.7104 102.723 73.5707 102.607 73.2787L101.814 71.2676C101.172 69.6383 101.918 67.7743 103.479 67.1045L106.974 65.6052C108.536 64.9354 110.323 65.7128 110.965 67.3421L111.758 69.3532C111.873 69.6452 111.739 69.9795 111.459 70.0997L111.459 70.0992Z" fill="white"/>
<path d="M112.164 72.898H101.855C101.223 72.898 100.711 73.4322 100.711 74.0911V82.3451C100.711 83.004 101.223 83.5387 101.855 83.5387H112.164C112.796 83.5387 113.308 83.0046 113.308 82.3451V74.0911C113.308 73.4322 112.796 72.898 112.164 72.898ZM108.484 80.8756C108.548 81.1538 108.346 81.4211 108.072 81.4211H105.946C105.672 81.4211 105.47 81.1538 105.534 80.8756L106.03 78.7213C105.445 78.3561 105.062 77.6737 105.101 76.9008C105.152 75.9007 105.929 75.0815 106.887 75.0191C107.998 74.947 108.92 75.8658 108.92 77.0085C108.92 77.7361 108.547 78.3727 107.989 78.7207L108.485 80.875L108.484 80.8756Z" fill="white"/>
<path d="M54.0755 79.8788C52.6575 22.175 69.252 8.33762 79.2697 5.22504C84.8462 3.49271 90.9198 4.17511 96.8349 7.19895C102.146 9.91423 106.957 14.4517 110.034 19.6487L109.258 20.1485C103.622 10.6293 91.288 2.48343 79.5298 6.13643C72.1006 8.44467 65.965 15.2446 61.7856 25.8011C56.7085 38.6264 54.4207 56.8124 54.987 79.8536L54.0755 79.8782V79.8788Z" fill="#B6FCC5"/>
<path d="M54.4414 71.2631C54.4293 71.2631 54.4173 71.2631 54.4052 71.2619C54.0534 71.2413 53.784 70.927 53.8038 70.5601C53.9426 67.9593 54.06 65.6373 54.1659 63.5374C54.9666 47.6752 55.1334 44.3742 59.3627 29.2882C59.462 28.935 59.8171 28.7329 60.1546 28.836C60.4931 28.939 60.6869 29.3088 60.5881 29.6621C56.3999 44.5992 56.2534 47.5017 55.4407 63.6073C55.3348 65.7077 55.2174 68.0314 55.0785 70.6339C55.0599 70.9883 54.7778 71.2625 54.442 71.2625L54.4414 71.2631Z" fill="#B6FCC5"/>
<path d="M109.054 18.8555L109.777 18.7553C110.445 18.6626 111.047 19.1847 111.083 19.8871L111.243 23.0804C111.286 23.9454 110.467 24.5746 109.688 24.274L109.411 24.167C109.039 24.0233 108.763 23.6907 108.681 23.2859L108.076 20.2999C107.937 19.6129 108.387 18.9482 109.055 18.8555H109.054Z" fill="#B6FCC5"/>
<path d="M109.81 30.2596C109.562 30.2596 109.359 30.0518 109.354 29.7924C109.349 29.5297 109.55 29.3133 109.801 29.3087L110.047 29.3041C110.724 29.2921 111.361 28.936 111.749 28.3527C112.123 27.791 112.214 27.1064 112 26.4755C111.922 26.2465 111.812 26.029 111.673 25.8303L110.106 23.5976C109.958 23.3858 110.002 23.0881 110.205 22.933C110.408 22.7784 110.694 22.8236 110.842 23.036L112.409 25.2687C112.601 25.5423 112.753 25.8418 112.86 26.1583C113.174 27.0812 113.042 28.079 112.499 28.8954C111.944 29.7295 111.033 30.2384 110.064 30.2561L109.818 30.2607H109.81V30.2596Z" fill="#00BF63"/>
<path d="M53.2009 69.5987H55.2428C55.7861 69.5987 56.2163 70.0773 56.1818 70.6424L55.6368 79.5931C55.6056 80.1101 55.1945 80.5125 54.6979 80.5125H53.2009C52.6812 80.5125 52.2598 80.0728 52.2598 79.5307V70.58C52.2598 70.0378 52.6812 69.5982 53.2009 69.5982V69.5987Z" fill="url(#paint1_linear_18_4210)"/>
<path d="M44.7227 73.596C46.1895 68.8942 47.1032 64.5291 46.5286 61.0696C45.385 59.8456 42.886 59.6424 40.3984 59.43L44.7227 73.596Z" fill="url(#paint2_linear_18_4210)"/>
<path d="M57.3676 73.6118L58.2209 75.6252L56.4155 76.7799L55.6406 75.6012L57.3676 73.6118Z" fill="url(#paint3_linear_18_4210)"/>
<path d="M44.0744 78.9419C44.0744 78.9419 45.4298 82.7833 49.4391 83.8435C53.4489 84.9032 55.651 79.2763 55.6401 76.2587L58.2203 75.6255C58.2203 75.6255 61.3636 94.8781 42.9121 87.6997L44.0744 78.9419Z" fill="url(#paint4_linear_18_4210)"/>
<path d="M37.1168 142.344C39.3475 142.451 41.5074 142.384 42.949 142.306C41.6364 141.331 38.6116 139.211 36.0813 138.367L34.3439 138.258C34.3439 138.258 33.7551 139.192 33.5449 141.33C33.833 141.705 34.6743 142.227 37.1168 142.344Z" fill="url(#paint5_linear_18_4210)"/>
<path d="M42.968 142.319C42.9619 142.315 42.9559 142.31 42.9499 142.306C41.5083 142.384 39.3483 142.451 37.1176 142.344C34.6756 142.227 33.8339 141.704 33.5458 141.33C33.5359 141.428 33.526 141.526 33.5183 141.63C33.4821 142.098 33.8157 142.511 34.2657 142.546C36.0931 142.69 40.6231 143.017 42.8077 142.897C43.0958 142.882 43.2028 142.495 42.968 142.32V142.319Z" fill="url(#paint6_linear_18_4210)"/>
<path d="M20.991 141.721C20.8275 140.628 20.5657 139.048 20.3632 138.645C20.0455 138.011 18.9584 138.645 18.9584 138.645C18.9584 138.645 18.751 137.216 18.3998 137.835C18.1759 138.229 17.001 141.152 16.5817 141.914C16.5334 142.001 16.5131 142.095 16.5159 142.185L20.8686 142.344C20.9751 142.166 21.025 141.949 20.991 141.721V141.721Z" fill="url(#paint7_linear_18_4210)"/>
<path d="M16.5156 142.185C16.5228 142.444 16.7198 142.679 16.998 142.687L20.099 142.776C20.4266 142.786 20.7103 142.608 20.8684 142.343L16.5156 142.184V142.185Z" fill="url(#paint8_linear_18_4210)"/>
<path d="M21.8394 134.435C21.7828 134.559 20.8027 137.277 20.3736 138.47C20.2551 138.8 19.9247 138.991 19.5938 138.919C19.4133 138.88 19.2042 138.828 18.9869 138.762C18.6011 138.644 18.3531 138.252 18.4003 137.835C18.5237 136.748 18.8179 134.671 19.3194 133.93C20.0114 132.907 21.8399 134.435 21.8399 134.435H21.8394Z" fill="url(#paint9_linear_18_4210)"/>
<path d="M34.002 135.828C34.2434 135.82 33.9059 137.127 34.2708 138.412C34.3532 138.702 34.5611 138.93 34.8509 138.933C35.0386 138.936 35.2614 138.932 35.4869 138.913C35.8266 138.885 36.0999 138.61 36.1311 138.255L36.428 134.922L34.002 135.828Z" fill="url(#paint10_linear_18_4210)"/>
<path d="M40.7503 100.396C40.6428 100.943 36.8421 124.07 36.6116 136.036C36.6077 136.236 36.4662 136.405 36.2757 136.433C35.7934 136.503 34.8533 136.593 33.9424 136.417C33.8178 136.393 33.7234 136.286 33.7158 136.153C33.583 133.924 32.5145 115.068 33.8228 106.193C33.8228 106.193 23.0166 129.919 21.3785 136.461C21.3385 136.621 21.1985 136.728 21.041 136.719C20.5784 136.693 19.6159 136.607 18.8515 136.313C18.5777 136.208 18.4218 135.908 18.491 135.612C19.4063 131.697 25.8197 104.721 30.1746 98.7779L40.7503 100.396Z" fill="url(#paint11_linear_18_4210)"/>
<path d="M33.8236 106.341C33.788 106.341 33.7523 106.328 33.7243 106.299C33.6683 106.242 33.6672 106.148 33.7221 106.089L35.1692 104.546C35.2241 104.488 35.3141 104.487 35.37 104.544C35.426 104.601 35.4271 104.695 35.3722 104.753L33.9252 106.297C33.8972 106.326 33.8604 106.341 33.8236 106.341Z" fill="url(#paint12_linear_18_4210)"/>
<path d="M46.843 72.9244C44.1404 72.1853 40.3978 70.3287 35.1643 71.2109C34.0448 71.3998 33.079 72.1126 32.871 73.2753L27.9119 101.005C27.8356 101.432 28.1489 101.827 28.5654 101.828L39.9879 101.871C40.3846 101.873 40.7391 101.612 40.8708 101.222L47.4905 81.6656C47.4905 81.6656 49.1999 73.569 46.843 72.9244Z" fill="url(#paint13_linear_18_4210)"/>
<path d="M40.151 64.9869C40.151 64.9869 39.6725 67.9661 39.3883 70.1392C39.2565 71.1445 39.8964 72.0833 40.8496 72.2843C42.1041 72.5488 43.7141 72.7846 44.326 72.4222L44.1926 66.0792L40.1505 64.9869H40.151Z" fill="url(#paint14_linear_18_4210)"/>
<path d="M44.7231 60.1534C44.7231 60.1534 46.0752 63.3942 46.1663 65.0956C46.2574 66.7964 46.6086 67.9002 44.7231 68.2431C42.8375 68.5854 41.2494 67.6059 40.389 65.9114C40.389 65.9114 39.0407 63.3003 39.343 62.2309C39.6454 61.1615 44.7231 60.1534 44.7231 60.1534Z" fill="url(#paint15_linear_18_4210)"/>
<path d="M41.0918 65.004C41.0918 65.004 40.5759 62.9339 39.6858 63.5144C38.7963 64.0949 40.1473 65.8341 40.8629 65.9114L41.0918 65.004Z" fill="url(#paint16_linear_18_4210)"/>
<path d="M33.5045 71.9273L38.7139 79.1772C38.7139 79.1772 35.6809 83.0357 37.2882 85.4814C37.7459 86.1775 38.7567 86.2244 39.9672 85.9376C39.5584 87.0608 39.2764 88.8796 40.3997 90.9869C37.2959 92.271 34.157 92.1049 32.1919 88.4273C27.7974 80.2037 33.5045 71.9279 33.5045 71.9279V71.9273Z" fill="url(#paint17_linear_18_4210)"/>
<path d="M40.0346 85.2902C40.1141 85.2564 40.1602 85.1671 40.141 85.0772C40.1191 84.9776 40.0236 84.9146 39.9281 84.9375C38.6402 85.2427 37.8016 85.115 37.4351 84.5574C35.9205 82.2532 38.8223 78.5137 38.8514 78.476C38.914 78.3969 38.9025 78.2796 38.8267 78.2143C38.7505 78.1496 38.6385 78.1611 38.5765 78.2401C38.4492 78.4021 35.4776 82.2354 37.1415 84.7669C37.5986 85.4625 38.5628 85.6417 40.0066 85.2993C40.0164 85.2971 40.0252 85.2942 40.0346 85.2902Z" fill="url(#paint18_linear_18_4210)"/>
<path d="M41.7931 85.7032C44.8366 84.9813 49.1482 82.1412 49.1482 82.1412L51.6253 82.6959C50.5365 84.6481 46.4132 89.0201 42.2256 90.7525C41.1028 88.6452 41.3843 86.827 41.7931 85.7032Z" fill="url(#paint19_linear_18_4210)"/>
<path d="M49.2589 82.7377L49.148 82.1412C49.148 82.1412 48.9927 79.7505 50.3388 78.4338C51.685 77.1171 52.9603 77.3455 53.5782 78.3543C54.1955 79.3635 53.3971 80.6047 52.3901 81.0655C51.3831 81.5258 52.4593 84.5347 49.2589 82.7377Z" fill="url(#paint20_linear_18_4210)"/>
<path d="M57.5906 72.1679C57.2603 71.7546 55.6831 70.4287 55.6656 71.1403C55.6474 71.8519 54.2059 75.5856 54.5571 75.8724C54.9077 76.1592 55.9762 76.6321 56.6478 75.7471C57.3195 74.862 57.7344 72.3477 57.5906 72.1679Z" fill="url(#paint21_linear_18_4210)"/>
<path d="M43.306 72.614C40.3888 65.9108 40.897 58.8395 46.5294 61.0693C44.9188 51.9434 29.6852 56.5044 37.3278 70.9337C37.853 71.9762 41.5039 72.6959 43.306 72.614Z" fill="url(#paint22_linear_18_4210)"/>
<path d="M44.1703 77.6942C44.15 77.6942 44.1297 77.6873 44.1127 77.6725C40.5985 74.6704 38.2223 72.5825 37.2505 70.9847C37.2236 70.9407 37.2362 70.8817 37.2785 70.8536C37.3207 70.8256 37.3772 70.8382 37.4041 70.8828C38.3612 72.4566 40.7274 74.5347 44.228 77.5253C44.2669 77.5585 44.2724 77.6186 44.2406 77.6593C44.2225 77.6822 44.1967 77.6942 44.1698 77.6942H44.1703Z" fill="url(#paint23_linear_18_4210)"/>
<path d="M44.645 82.3736L44.5824 79.9354C45.191 79.7551 45.6295 79.1626 45.6119 78.4722C45.591 77.6553 44.9391 77.0106 44.156 77.0324C43.373 77.0541 42.7551 77.7343 42.7759 78.5512C42.7946 79.2742 43.3066 79.8616 43.9667 79.9727L43.9843 80.6694L43.6276 80.6791C43.4937 80.6831 43.3883 80.7987 43.3916 80.9384V80.9476C43.3955 81.0873 43.5069 81.1972 43.6407 81.1938L43.9974 81.184L44.0139 81.8275L43.4635 81.8429C43.3296 81.8464 43.2242 81.9626 43.2275 82.1023V82.1114C43.2314 82.2511 43.3428 82.361 43.4767 82.3576L44.0271 82.3422L44.0282 82.3914C44.0326 82.5671 44.173 82.7062 44.3415 82.7017H44.3476C44.516 82.6971 44.6494 82.5505 44.645 82.3742V82.3736ZM43.3192 78.5363C43.3066 78.0319 43.6874 77.6129 44.1709 77.5992C44.6543 77.586 45.056 77.9833 45.0692 78.4876C45.0818 78.992 44.701 79.4116 44.2175 79.4248C43.734 79.438 43.3318 79.0407 43.3192 78.5363Z" fill="url(#paint24_linear_18_4210)"/>
<path d="M44.1712 77.694C44.1603 77.694 44.1493 77.6917 44.1389 77.6877C44.0917 77.6688 44.0681 77.6139 44.0862 77.5646C44.8007 75.6062 45.5349 73.4353 45.1996 72.4719C45.1826 72.4226 45.2067 72.3682 45.2545 72.3499C45.3017 72.3322 45.3538 72.3574 45.3714 72.4072C45.6918 73.3289 45.1579 75.1625 44.2568 77.6322C44.2431 77.67 44.208 77.6934 44.1718 77.6934L44.1712 77.694Z" fill="url(#paint25_linear_18_4210)"/>
<path d="M145.631 79.5643C145.631 79.5643 145.758 81.4358 147.224 82.2212C149.722 83.5591 155.045 85.9286 154.752 89.5255C154.637 90.9361 153.371 92.2763 153.333 93.5964C153.305 94.5742 153.63 95.4942 153.94 96.4004C154.781 98.8552 154.514 100.74 152.179 102.026C150.353 103.031 149.343 104.543 149.035 106.668C148.558 109.962 144.569 109.999 142.328 109.17C139.609 108.164 137.25 105.721 136.371 102.832C135.936 101.403 135.872 99.4826 136.396 98.056C136.824 96.8881 137.289 95.5909 137.309 94.3223C137.331 92.8974 136.56 91.9156 135.741 90.8645C135.072 90.0052 135.063 87.9174 135.275 86.8989C135.52 85.7145 136.135 84.5987 136.694 83.5488C137.758 81.5491 139.344 79.3943 141.602 78.8378C142.873 78.5247 144.497 78.9168 145.631 79.5637L145.631 79.5643Z" fill="url(#paint26_linear_18_4210)"/>
<path d="M132.636 90.008C132.636 90.008 119.93 77.8296 133.353 78.4576C133.353 78.4576 134.691 73.6585 134.938 72.8364C135.25 72.9429 136.076 73.8686 135.764 75.2649C135.465 76.5965 135.841 77.5365 135.841 77.5365C135.841 77.5365 136.617 76.3108 137.29 76.6531L136.076 78.8005C136.076 78.8005 134.973 80.1865 134.139 79.9025C133.746 79.859 125.065 79.5785 133.888 85.3577C133.888 85.3577 136.872 86.2193 136.824 86.5353C136.676 87.4971 133.808 89.009 132.636 90.0085V90.008Z" fill="url(#paint27_linear_18_4210)"/>
<path d="M143.706 152.268L143.955 154.401C144.002 154.806 144.308 155.126 144.696 155.172C145.352 155.25 146.404 155.33 147.433 155.217C147.885 155.167 148.178 154.69 148.04 154.238C147.79 153.414 147.33 152.178 146.669 151.451H144.4C143.981 151.451 143.656 151.834 143.706 152.268Z" fill="url(#paint28_linear_18_4210)"/>
<path d="M126.808 128.139L125.556 129.625C125.556 129.625 126.839 143.175 127.067 148.595C127.102 149.445 126.891 150.284 126.464 151.009L124.234 154.786L129.901 151.298L130.014 150.576L129.087 149.246C129.087 149.246 130.143 138.286 130.301 134.067C130.46 129.847 129.448 128.106 129.448 128.106L126.808 128.139Z" fill="url(#paint29_linear_18_4210)"/>
<path d="M123.861 155.333H125.669C126.007 155.333 126.327 155.171 126.533 154.891C127.097 154.127 128.265 152.636 128.823 152.597C129.575 152.545 129.479 155.333 129.479 155.333H129.9L130.434 151.868C130.569 150.997 130.153 150.133 129.402 149.725C129.402 149.725 129.231 151.05 128.299 151.637C127.367 152.224 124.507 154.324 124.507 154.324C124.507 154.324 124.157 154.272 123.772 154.344C123.201 154.452 123.281 155.334 123.861 155.334L123.861 155.333Z" fill="url(#paint30_linear_18_4210)"/>
<path d="M133.699 128.392C133.699 128.392 141.211 143.257 142.405 146.651C143.599 150.045 144.018 152.876 144.033 153.144C144.059 153.564 144.558 153.965 145.935 153.965C146.646 153.965 146.993 153.668 147.164 153.381C147.31 153.135 147.317 152.828 147.194 152.57C146.76 151.652 145.381 148.72 144.87 147.39C144.261 145.803 142.949 138.608 142.23 136.106C141.51 133.605 140.697 130.891 137.565 128.392C137.565 128.392 135.414 126.194 133.699 128.392Z" fill="url(#paint31_linear_18_4210)"/>
<path d="M142.178 104.034C140.24 95.4676 145.149 90.6227 145.149 90.6227C142.052 87.521 136.408 86.1099 136.408 86.1099C136.408 86.1099 131.023 90.2168 131.662 93.4319C132.036 95.3159 135.447 104.718 135.447 104.718C135.447 104.718 138.601 106.275 142.178 104.034H142.178Z" fill="url(#paint32_linear_18_4210)"/>
<path d="M134.967 108.392C135.755 105.914 135.446 104.718 135.446 104.718C138.378 106.021 142.177 104.034 142.177 104.034C142.177 104.034 147.335 106.501 144.694 112.957C142.549 118.199 137.941 128.702 137.941 128.702C133.115 129.722 125.557 129.625 125.557 129.625C128.609 118.168 134.179 110.87 134.968 108.392H134.967Z" fill="url(#paint33_linear_18_4210)"/>
<path d="M142.288 83.7316L141.504 87.8311C141.654 88.4814 141.086 88.3749 140.456 88.2513C139.424 88.048 138.094 87.6301 137.649 86.7926C137.604 86.7073 137.581 86.6111 137.568 86.5144L139.252 84.6784C139.198 84.2725 139.409 83.8781 139.768 83.7121L141.074 83.1081C141.577 82.8757 142.159 83.1751 142.288 83.7327V83.7316Z" fill="url(#paint34_linear_18_4210)"/>
<path d="M141.015 77.1125C141.015 77.1125 139.064 77.6775 137.459 80.2966C135.854 82.9157 136.633 84.3309 137.792 84.6675C138.95 85.0041 140.956 84.7185 143.047 83.1693C145.138 81.6202 143.54 76.4719 141.015 77.1131V77.1125Z" fill="url(#paint35_linear_18_4210)"/>
<path d="M141.74 82.007C141.74 82.007 143.643 78.1147 140.181 77.5977L139.291 78.0826C139.291 78.0826 138.299 75.6479 140.522 74.8504C142.745 74.0529 145.079 75.2758 145.603 78.3317C146.127 81.3876 146.034 83.3729 144.381 84.5774C142.728 85.7819 142.316 84.1068 142.316 84.1068C142.316 84.1068 143.285 82.9023 143.044 82.1547C142.804 81.4076 141.942 82.6504 141.942 82.6504L141.74 82.007Z" fill="url(#paint36_linear_18_4210)"/>
<path d="M149.065 81.4047C149.065 81.4047 157.963 93.5069 145.147 90.6228C142.605 92.2847 142.842 94.3416 142.842 94.3416C142.842 94.3416 164.608 97.2155 150.881 81.7665C150.657 81.5146 150.689 81.1385 150.66 80.7961C150.6 80.0765 150.032 78.7117 149.993 77.9904C149.944 77.0922 148.669 75.12 147.856 75.3181C147.302 75.4532 147.514 76.4499 147.606 77.0361L148.647 79.5155C148.754 80.199 148.571 80.0313 147.908 79.9804C147.908 79.9804 147.501 79.8367 147.46 79.9454C147.33 80.2889 149.064 81.4047 149.064 81.4047H149.065Z" fill="url(#paint37_linear_18_4210)"/>
<path d="M151.2 87.7753C151.156 87.7753 151.121 87.7381 151.121 87.6928C151.121 87.374 150.45 84.9667 147.523 83.6895C145.992 83.0214 145.364 81.7047 145.107 80.7172C144.829 79.6523 144.911 78.7581 144.914 78.7203C144.919 78.6745 144.957 78.6414 145.001 78.6459C145.044 78.6505 145.076 78.6912 145.072 78.7364C145.071 78.7455 144.99 79.642 145.261 80.6788C145.623 82.0602 146.404 83.022 147.584 83.5366C150.59 84.8476 151.279 87.3585 151.279 87.6923C151.279 87.7381 151.243 87.7747 151.2 87.7747V87.7753Z" fill="white"/>
<path d="M150.301 88.9882C150.301 88.9882 150.297 88.9882 150.295 88.9882C150.251 88.9854 150.218 88.9459 150.222 88.9001C150.323 87.3601 148.548 85.6484 148.53 85.6318C148.497 85.6009 148.495 85.5488 148.525 85.515C148.554 85.4818 148.604 85.4789 148.637 85.5098C148.712 85.582 150.487 87.292 150.38 88.9121C150.377 88.9556 150.342 88.9888 150.301 88.9888L150.301 88.9882Z" fill="white"/>
<path d="M150.306 101.158C150.269 101.158 150.235 101.13 150.228 101.091C150.22 101.046 150.248 101.002 150.291 100.994C151.388 100.778 152.113 99.9514 152.444 98.5385C152.694 97.4737 152.615 96.4615 152.613 96.4518C152.61 96.406 152.642 96.3659 152.685 96.3625C152.726 96.3562 152.767 96.3922 152.771 96.4375C152.772 96.4478 152.854 97.4868 152.598 98.578C152.255 100.038 151.467 100.93 150.32 101.156C150.315 101.158 150.31 101.158 150.305 101.158H150.306Z" fill="white"/>
</g>
<defs>
<filter id="filter0_d_18_4210" x="0" y="0" width="159.423" height="163.334" filterUnits="userSpaceOnUse" color-interpolation-filters="sRGB">
<feFlood flood-opacity="0" result="BackgroundImageFix"/>
<feColorMatrix in="SourceAlpha" type="matrix" values="0 0 0 0 0 0 0 0 0 0 0 0 0 0 0 0 0 0 127 0" result="hardAlpha"/>
<feOffset dy="4"/>
<feGaussianBlur stdDeviation="2"/>
<feComposite in2="hardAlpha" operator="out"/>
<feColorMatrix type="matrix" values="0 0 0 0 0 0 0 0 0 0 0 0 0 0 0 0 0 0 0.25 0"/>
<feBlend mode="normal" in2="BackgroundImageFix" result="effect1_dropShadow_18_4210"/>
<feBlend mode="normal" in="SourceGraphic" in2="effect1_dropShadow_18_4210" result="shape"/>
</filter>
<linearGradient id="paint0_linear_18_4210" x1="106.598" y1="26.2328" x2="108.116" y2="26.2328" gradientUnits="userSpaceOnUse">
<stop stop-color="#2B3582"/>
<stop offset="1" stop-color="#150E42"/>
</linearGradient>
<linearGradient id="paint1_linear_18_4210" x1="52.2598" y1="75.0556" x2="56.184" y2="75.0556" gradientUnits="userSpaceOnUse">
<stop stop-color="#E1473D"/>
<stop offset="1" stop-color="#E9605A"/>
</linearGradient>
<linearGradient id="paint2_linear_18_4210" x1="55.7001" y1="56.9597" x2="51.5213" y2="59.7512" gradientUnits="userSpaceOnUse">
<stop stop-color="#09005D"/>
<stop offset="1" stop-color="#1A0F91"/>
</linearGradient>
<linearGradient id="paint3_linear_18_4210" x1="57.2353" y1="74.6327" x2="54.259" y2="83.7299" gradientUnits="userSpaceOnUse">
<stop stop-color="#FEBBBA"/>
<stop offset="1" stop-color="#FF928E"/>
</linearGradient>
<linearGradient id="paint4_linear_18_4210" x1="57.5613" y1="77.8056" x2="79.2588" y2="63.94" gradientUnits="userSpaceOnUse">
<stop stop-color="#09005D"/>
<stop offset="1" stop-color="#1A0F91"/>
</linearGradient>
<linearGradient id="paint5_linear_18_4210" x1="33.5147" y1="140.328" x2="43.0955" y2="140.328" gradientUnits="userSpaceOnUse">
<stop stop-color="#09005D"/>
<stop offset="1" stop-color="#1A0F91"/>
</linearGradient>
<linearGradient id="paint6_linear_18_4210" x1="33.5156" y1="142.126" x2="43.0964" y2="142.126" gradientUnits="userSpaceOnUse">
<stop stop-color="#4F52FF"/>
<stop offset="1" stop-color="#4042E2"/>
</linearGradient>
<linearGradient id="paint7_linear_18_4210" x1="16.5153" y1="140.011" x2="21.0014" y2="140.011" gradientUnits="userSpaceOnUse">
<stop stop-color="#09005D"/>
<stop offset="1" stop-color="#1A0F91"/>
</linearGradient>
<linearGradient id="paint8_linear_18_4210" x1="16.5156" y1="142.481" x2="20.8684" y2="142.481" gradientUnits="userSpaceOnUse">
<stop stop-color="#4F52FF"/>
<stop offset="1" stop-color="#4042E2"/>
</linearGradient>
<linearGradient id="paint9_linear_18_4210" x1="18.6623" y1="136.042" x2="21.5431" y2="136.477" gradientUnits="userSpaceOnUse">
<stop stop-color="#FEBBBA"/>
<stop offset="1" stop-color="#FF928E"/>
</linearGradient>
<linearGradient id="paint10_linear_18_4210" x1="34.002" y1="136.928" x2="36.428" y2="136.928" gradientUnits="userSpaceOnUse">
<stop stop-color="#FEBBBA"/>
<stop offset="1" stop-color="#FF928E"/>
</linearGradient>
<linearGradient id="paint11_linear_18_4210" x1="37.3326" y1="96.9563" x2="25.4917" y2="140.086" gradientUnits="userSpaceOnUse">
<stop stop-color="#09005D"/>
<stop offset="1" stop-color="#1A0F91"/>
</linearGradient>
<linearGradient id="paint12_linear_18_4210" x1="46.1554" y1="89.7646" x2="35.695" y2="102.728" gradientUnits="userSpaceOnUse">
<stop stop-color="#53D8FF"/>
<stop offset="1" stop-color="#3840F7"/>
</linearGradient>
<linearGradient id="paint13_linear_18_4210" x1="41.0541" y1="72.7595" x2="34.5911" y2="104.875" gradientUnits="userSpaceOnUse">
<stop stop-color="#09005D"/>
<stop offset="1" stop-color="#1A0F91"/>
</linearGradient>
<linearGradient id="paint14_linear_18_4210" x1="41.2634" y1="74.9704" x2="42.4956" y2="67.6866" gradientUnits="userSpaceOnUse">
<stop stop-color="#FEBBBA"/>
<stop offset="1" stop-color="#FF928E"/>
</linearGradient>
<linearGradient id="paint15_linear_18_4210" x1="45.0068" y1="63.0061" x2="37.0365" y2="68.8518" gradientUnits="userSpaceOnUse">
<stop stop-color="#FEBBBA"/>
<stop offset="1" stop-color="#FF928E"/>
</linearGradient>
<linearGradient id="paint16_linear_18_4210" x1="44.0474" y1="61.6985" x2="36.0776" y2="67.5442" gradientUnits="userSpaceOnUse">
<stop stop-color="#FEBBBA"/>
<stop offset="1" stop-color="#FF928E"/>
</linearGradient>
<linearGradient id="paint17_linear_18_4210" x1="35.1881" y1="72.9062" x2="35.5852" y2="90.7898" gradientUnits="userSpaceOnUse">
<stop stop-color="#09005D"/>
<stop offset="1" stop-color="#1A0F91"/>
</linearGradient>
<linearGradient id="paint18_linear_18_4210" x1="86.4723" y1="-6.59465" x2="32.0751" y2="86.9226" gradientUnits="userSpaceOnUse">
<stop stop-color="#4F52FF"/>
<stop offset="1" stop-color="#4042E2"/>
</linearGradient>
<linearGradient id="paint19_linear_18_4210" x1="51.5599" y1="78.9798" x2="38.9872" y2="91.8439" gradientUnits="userSpaceOnUse">
<stop stop-color="#FEBBBA"/>
<stop offset="1" stop-color="#FF928E"/>
</linearGradient>
<linearGradient id="paint20_linear_18_4210" x1="52.0496" y1="79.4587" x2="39.477" y2="92.3227" gradientUnits="userSpaceOnUse">
<stop stop-color="#FEBBBA"/>
<stop offset="1" stop-color="#FF928E"/>
</linearGradient>
<linearGradient id="paint21_linear_18_4210" x1="56.4486" y1="72.7968" x2="51.7483" y2="87.1642" gradientUnits="userSpaceOnUse">
<stop stop-color="#FEBBBA"/>
<stop offset="1" stop-color="#FF928E"/>
</linearGradient>
<linearGradient id="paint22_linear_18_4210" x1="43.3153" y1="58.6163" x2="33.5468" y2="77.2803" gradientUnits="userSpaceOnUse">
<stop stop-color="#09005D"/>
<stop offset="1" stop-color="#1A0F91"/>
</linearGradient>
<linearGradient id="paint23_linear_18_4210" x1="37.2362" y1="74.2662" x2="44.262" y2="74.2662" gradientUnits="userSpaceOnUse">
<stop stop-color="#4F52FF"/>
<stop offset="1" stop-color="#4042E2"/>
</linearGradient>
<linearGradient id="paint24_linear_18_4210" x1="45.4582" y1="76.6986" x2="38.9348" y2="89.0784" gradientUnits="userSpaceOnUse">
<stop stop-color="#FF928E"/>
<stop offset="1" stop-color="#FE7062"/>
</linearGradient>
<linearGradient id="paint25_linear_18_4210" x1="44.0801" y1="75.0194" x2="45.4647" y2="75.0194" gradientUnits="userSpaceOnUse">
<stop stop-color="#4F52FF"/>
<stop offset="1" stop-color="#4042E2"/>
</linearGradient>
<linearGradient id="paint26_linear_18_4210" x1="162.698" y1="125.261" x2="124.779" y2="65.3275" gradientUnits="userSpaceOnUse">
<stop stop-color="#E1473D"/>
<stop offset="1" stop-color="#E9605A"/>
</linearGradient>
<linearGradient id="paint27_linear_18_4210" x1="131.608" y1="75.6691" x2="140.183" y2="119.169" gradientUnits="userSpaceOnUse">
<stop stop-color="#FEBBBA"/>
<stop offset="1" stop-color="#FF928E"/>
</linearGradient>
<linearGradient id="paint28_linear_18_4210" x1="143.701" y1="153.362" x2="148.075" y2="153.362" gradientUnits="userSpaceOnUse">
<stop stop-color="#4F52FF"/>
<stop offset="1" stop-color="#4042E2"/>
</linearGradient>
<linearGradient id="paint29_linear_18_4210" x1="127.326" y1="145.788" x2="127.763" y2="161.715" gradientUnits="userSpaceOnUse">
<stop stop-color="#FEBBBA"/>
<stop offset="1" stop-color="#FF928E"/>
</linearGradient>
<linearGradient id="paint30_linear_18_4210" x1="123.383" y1="152.529" x2="130.459" y2="152.529" gradientUnits="userSpaceOnUse">
<stop stop-color="#4F52FF"/>
<stop offset="1" stop-color="#4042E2"/>
</linearGradient>
<linearGradient id="paint31_linear_18_4210" x1="140.61" y1="145.423" x2="141.047" y2="161.35" gradientUnits="userSpaceOnUse">
<stop stop-color="#FEBBBA"/>
<stop offset="1" stop-color="#FF928E"/>
</linearGradient>
<linearGradient id="paint32_linear_18_4210" x1="167.428" y1="55.7661" x2="136.569" y2="94.7466" gradientUnits="userSpaceOnUse">
<stop stop-color="#09005D"/>
<stop offset="1" stop-color="#1A0F91"/>
</linearGradient>
<linearGradient id="paint33_linear_18_4210" x1="134.402" y1="89.9679" x2="135.978" y2="128.887" gradientUnits="userSpaceOnUse">
<stop stop-color="#FF928E"/>
<stop offset="1" stop-color="#FE7062"/>
</linearGradient>
<linearGradient id="paint34_linear_18_4210" x1="139.296" y1="90.4004" x2="140.274" y2="82.9053" gradientUnits="userSpaceOnUse">
<stop stop-color="#FEBBBA"/>
<stop offset="1" stop-color="#FF928E"/>
</linearGradient>
<linearGradient id="paint35_linear_18_4210" x1="136.369" y1="87.2179" x2="149.753" y2="70.0192" gradientUnits="userSpaceOnUse">
<stop stop-color="#FEBBBA"/>
<stop offset="1" stop-color="#FF928E"/>
</linearGradient>
<linearGradient id="paint36_linear_18_4210" x1="167.894" y1="122.071" x2="129.975" y2="62.1375" gradientUnits="userSpaceOnUse">
<stop stop-color="#E1473D"/>
<stop offset="1" stop-color="#E9605A"/>
</linearGradient>
<linearGradient id="paint37_linear_18_4210" x1="147.576" y1="91.7923" x2="155.339" y2="76.1437" gradientUnits="userSpaceOnUse">
<stop stop-color="#FEBBBA"/>
<stop offset="1" stop-color="#FF928E"/>
</linearGradient>
</defs>
</svg>
