<svg width="61" height="61" viewBox="0 0 61 61" fill="none" xmlns="http://www.w3.org/2000/svg">
<mask id="mask0_14_5031" style="mask-type:luminance" maskUnits="userSpaceOnUse" x="0" y="0" width="61" height="61">
<path d="M0 0H60.945V60.945H0V0Z" fill="white"/>
</mask>
<g mask="url(#mask0_14_5031)">
<path fill-rule="evenodd" clip-rule="evenodd" d="M55.3737 25.4992H53.3282V25.3939H30.4738V35.5514H44.8251C42.7314 41.4643 37.1054 45.7089 30.4738 45.7089C22.0596 45.7089 15.2376 38.8868 15.2376 30.4726C15.2376 22.0584 22.0596 15.2364 30.4738 15.2364C34.3578 15.2364 37.8913 16.7016 40.5818 19.0949L47.7644 11.9123C43.2291 7.68553 37.1625 5.07886 30.4738 5.07886C16.4501 5.07886 5.08008 16.4489 5.08008 30.4726C5.08008 44.4963 16.4501 55.8664 30.4738 55.8664C44.4975 55.8664 55.8676 44.4963 55.8676 30.4726C55.8676 28.77 55.6924 27.1079 55.3737 25.4992Z" fill="#FFC107"/>
<path fill-rule="evenodd" clip-rule="evenodd" d="M8.00781 18.6531L16.3509 24.7717C18.6084 19.1825 24.0757 15.2364 30.4737 15.2364C34.3576 15.2364 37.8912 16.7016 40.5816 19.0949L47.7643 11.9123C43.229 7.68552 37.1624 5.07886 30.4737 5.07886C20.7199 5.07886 12.2613 10.5855 8.00781 18.6531Z" fill="#FF3D00"/>
<path fill-rule="evenodd" clip-rule="evenodd" d="M30.474 55.8667C37.0332 55.8667 42.9931 53.3565 47.4992 49.2745L39.6399 42.6238C37.0903 44.555 33.9212 45.7092 30.474 45.7092C23.8691 45.7092 18.2608 41.4976 16.1481 35.6202L7.86719 42.0004C12.0699 50.2242 20.6047 55.8667 30.474 55.8667Z" fill="#4CAF50"/>
<path fill-rule="evenodd" clip-rule="evenodd" d="M55.3725 25.4992H53.327V25.3938H30.4727V35.5513H44.8239C43.8183 38.3916 41.9913 40.8408 39.6347 42.6247C39.636 42.6235 39.6373 42.6235 39.6385 42.6222L47.4979 49.2728C46.9418 49.7782 55.8664 43.1694 55.8664 30.4725C55.8664 28.7699 55.6912 27.1079 55.3725 25.4992Z" fill="#1976D2"/>
</g>
</svg>
