<svg width="27" height="26" viewBox="0 0 27 26" fill="none" xmlns="http://www.w3.org/2000/svg">
<path fill-rule="evenodd" clip-rule="evenodd" d="M23.625 10.7091V18.956C23.625 21.3061 21.6103 23.2112 19.125 23.2112H7.875C5.38972 23.2112 3.375 21.3061 3.375 18.956V10.7091C3.375 9.43152 3.9821 8.2215 5.02859 7.41336L10.6536 3.06952C12.3101 1.79031 14.6899 1.7903 16.3464 3.06952L21.9714 7.41336C23.0179 8.2215 23.625 9.43152 23.625 10.7091ZM17.1562 18.1997V20.5735C17.1562 21.1562 16.6526 21.6286 16.0312 21.6286H10.9688C10.3474 21.6286 9.84375 21.1562 9.84375 20.5735V18.1997C9.84375 16.3059 11.4807 14.7708 13.5 14.7708C15.5193 14.7708 17.1562 16.3059 17.1562 18.1997Z" fill="white"/>
</svg>
