<svg width="20" height="24" viewBox="0 0 20 24" fill="none" xmlns="http://www.w3.org/2000/svg">
<path d="M11.1111 21.2093V24L7.77778 21.7674L4.44444 24V21.2093H3.88889C1.74111 21.2093 0 19.4601 0 17.3023V3.34884C0 1.49933 1.49239 0 3.33333 0H18.8889C19.5026 0 20 0.49978 20 1.11628V20.093C20 20.7095 19.5026 21.2093 18.8889 21.2093H11.1111ZM11.1111 18.9767H17.7778V15.6279H3.88889C2.96841 15.6279 2.22222 16.3776 2.22222 17.3023C2.22222 18.2271 2.96841 18.9767 3.88889 18.9767H4.44444V16.7442H11.1111V18.9767ZM17.7778 13.3953V2.23256H3.33333V13.4349C3.51478 13.4089 3.70027 13.3953 3.88889 13.3953H17.7778ZM4.44444 3.34884H6.66667V5.5814H4.44444V3.34884ZM4.44444 6.69767H6.66667V8.93023H4.44444V6.69767ZM4.44444 10.0465H6.66667V12.2791H4.44444V10.0465Z" fill="white"/>
</svg>
