<svg width="301" height="235" viewBox="0 0 301 235" fill="none" xmlns="http://www.w3.org/2000/svg">
<path d="M25.4891 192.943C24.8943 191.114 24.3108 189.215 23.7502 187.305L25.1459 186.891C25.7065 188.789 26.2899 190.676 26.8734 192.494L25.4891 192.943ZM274.218 190.584L272.777 190.4C273.017 188.456 273.246 186.488 273.452 184.566L274.893 184.728C274.687 186.661 274.459 188.628 274.218 190.584ZM22.1372 181.632C21.6338 179.745 21.1419 177.824 20.6729 175.913L22.08 175.568C22.5376 177.455 23.0295 179.377 23.5329 181.253L22.1372 181.632ZM275.488 178.871L274.047 178.733C274.23 176.776 274.401 174.809 274.55 172.887L275.992 173.002C275.843 174.935 275.671 176.903 275.488 178.871ZM19.3573 170.172C18.934 168.25 18.545 166.305 18.1675 164.395L19.5861 164.119C19.9522 166.018 20.3526 167.951 20.7644 169.861L19.3573 170.172ZM276.415 167.122L274.962 167.03C275.088 165.074 275.191 163.107 275.282 161.173L276.735 161.242C276.644 163.187 276.541 165.166 276.415 167.122ZM17.1265 158.584C16.8061 156.64 16.5087 154.672 16.2341 152.751L17.6756 152.543C17.9387 154.454 18.2362 156.41 18.5565 158.343L17.1265 158.584ZM276.964 155.351L275.511 155.305C275.568 153.337 275.603 151.37 275.625 149.437L277.078 149.448C277.055 151.393 277.01 153.383 276.964 155.351ZM15.5134 146.894C15.2961 144.926 15.113 142.947 14.9529 141.014L16.3943 140.899C16.543 142.82 16.7375 144.776 16.9549 146.733L15.5134 146.894ZM275.625 143.58C275.614 141.612 275.568 139.645 275.511 137.711L276.964 137.665C277.021 139.598 277.055 141.589 277.078 143.557L275.625 143.58ZM14.5753 135.122C14.4838 133.143 14.4152 131.164 14.3809 129.22L15.8337 129.197C15.8681 131.118 15.9253 133.086 16.0168 135.053L14.5753 135.122ZM275.282 131.855C275.179 129.887 275.065 127.919 274.916 125.998L276.358 125.894C276.495 127.827 276.621 129.806 276.724 131.774L275.282 131.855ZM15.8452 123.351L14.3923 123.317C14.4381 121.337 14.5067 119.347 14.6211 117.414L16.074 117.494C15.9596 119.416 15.8909 121.383 15.8452 123.351ZM274.424 120.164C274.23 118.208 274.012 116.24 273.772 114.341L275.214 114.157C275.454 116.067 275.671 118.047 275.866 120.014L274.424 120.164ZM16.543 111.672L15.1016 111.522C15.2961 109.543 15.5363 107.576 15.8109 105.654L17.2409 105.861C16.9663 107.76 16.7375 109.716 16.543 111.672ZM272.96 108.531C272.662 106.586 272.331 104.641 271.976 102.754L273.406 102.49C273.761 104.388 274.092 106.344 274.401 108.312L272.96 108.531ZM101.405 108.323C99.3917 108.001 97.9274 107.081 95.914 105.481L96.8292 104.354C98.6024 105.746 99.8722 106.586 101.565 106.874L101.405 108.323ZM106.439 104.848L105.146 104.181C105.81 102.869 106.393 101.051 106.896 98.7845L108.315 99.0951C107.777 101.535 107.171 103.41 106.439 104.848ZM91.6468 101.304C90.4914 100.004 89.2559 98.5198 87.8716 96.7478L89.0156 95.8388C90.377 97.5878 91.6011 99.0491 92.7336 100.326L91.6468 101.304ZM18.2133 100.108L16.7947 99.8316C17.1722 97.8869 17.5955 95.9423 18.0531 94.0552L19.4602 94.4004C19.0026 96.253 18.5794 98.1746 18.2133 100.108ZM270.798 97.0239C270.363 95.0908 269.905 93.1807 269.425 91.3397L270.832 90.9715C271.324 92.8355 271.793 94.7686 272.228 96.7133L270.798 97.0239ZM109.276 93.2268L107.834 93.0426C108.052 91.2936 108.258 89.3951 108.441 87.2088L109.882 87.3354C109.711 89.5331 109.505 91.4547 109.276 93.2268ZM84.3252 92.0301C83.1469 90.4306 81.9228 88.7277 80.8703 87.2663L82.0487 86.4033C83.1011 87.8647 84.3252 89.5561 85.4921 91.1556L84.3252 92.0301ZM190.523 91.915C189.39 91.915 188.281 91.5698 187.228 90.9024L188.006 89.6712C189.596 90.6838 191.152 90.6838 192.834 89.8783L193.463 91.2016C192.456 91.6734 191.473 91.915 190.523 91.915ZM21.0046 88.7622L19.6204 88.3364C20.1924 86.4378 20.833 84.5508 21.4966 82.7212L22.8579 83.2275C22.1944 85.034 21.5766 86.8981 21.0046 88.7622ZM198.199 87.3699L197.135 86.3803C198.234 85.1836 199.412 83.6993 200.739 81.8582L201.917 82.7097C200.556 84.6083 199.343 86.1272 198.199 87.3699ZM183.098 86.3688C182.16 84.9075 181.234 83.193 180.25 81.1218L181.566 80.5004C182.515 82.5141 183.407 84.1825 184.311 85.5863L183.098 86.3688ZM267.823 85.7244C267.24 83.8373 266.611 81.9733 265.97 80.1897L267.331 79.6834C267.983 81.49 268.613 83.3771 269.208 85.2872L267.823 85.7244ZM77.4269 82.5141C76.0998 80.6845 74.9902 79.1887 73.9491 77.7964L75.1046 76.9103C76.157 78.3142 77.2667 79.81 78.5938 81.6511L77.4269 82.5141ZM110.34 81.421L108.887 81.3289C109.001 79.6144 109.104 77.6928 109.23 75.449L110.683 75.5295C110.557 77.7849 110.443 79.7065 110.34 81.421ZM25.0315 77.8309L23.7045 77.244C24.5053 75.426 25.3519 73.6425 26.2556 71.905L27.5369 72.5839C26.6446 74.2868 25.8095 76.0473 25.0315 77.8309ZM205.235 77.8309L204.022 77.0254C205.052 75.449 206.116 73.7805 207.191 72.0891L208.415 72.883C207.34 74.5745 206.276 76.243 205.235 77.8309ZM177.928 75.6676C177.275 74.0107 176.589 72.1926 175.857 70.1329L177.218 69.6382C177.95 71.6863 178.625 73.4814 179.278 75.1268L177.928 75.6676ZM263.831 74.7586C263.053 72.9291 262.229 71.157 261.383 69.4771L262.675 68.8097C263.533 70.5127 264.38 72.3192 265.169 74.1833L263.831 74.7586ZM70.3684 73.1592C69.0528 71.5137 67.8287 70.0524 66.6275 68.6831L67.7143 67.7165C68.9384 69.0973 70.1739 70.5817 71.5009 72.2502L70.3684 73.1592ZM110.98 69.6382L109.528 69.5691C109.631 67.613 109.722 65.6684 109.825 63.6777L111.278 63.7583C111.175 65.7374 111.072 67.682 110.98 69.6382ZM211.596 67.9467L210.383 67.1412C211.596 65.3001 212.682 63.7007 213.701 62.2624L214.879 63.1139C213.872 64.5292 212.808 66.1056 211.596 67.9467ZM30.4083 67.5324L29.1843 66.75C30.3283 64.955 31.4951 63.3325 32.6735 61.9287L33.7832 62.8723C32.6506 64.2185 31.518 65.7834 30.4083 67.5324ZM173.912 64.5637C173.249 62.5961 172.597 60.64 172.047 58.9715L173.42 58.5112C173.969 60.1682 174.621 62.1358 175.285 64.092L173.912 64.5637ZM62.6349 64.4602C61.1477 63.0103 59.6948 61.7216 58.2991 60.64L59.18 59.4778C60.6215 60.5939 62.1201 61.9172 63.6416 63.4016L62.6349 64.4602ZM258.568 64.3911C257.527 62.6881 256.441 61.0657 255.331 59.5929L256.486 58.7069C257.63 60.2257 258.74 61.8827 259.804 63.6317L258.568 64.3911ZM37.8558 58.891L36.9749 57.7288C38.7024 56.394 40.5099 55.439 42.3289 54.8751L42.7521 56.2674C41.1048 56.7852 39.4574 57.6597 37.8558 58.891ZM218.38 58.4422L217.247 57.5217C218.608 55.8302 219.901 54.3804 221.182 53.0801L222.212 54.1157C220.965 55.3699 219.718 56.7852 218.38 58.4422ZM111.598 57.8669L110.145 57.7748C110.271 55.6461 110.397 53.7245 110.523 51.8834L111.964 51.987C111.85 53.828 111.724 55.7496 111.598 57.8669ZM53.5058 57.5562C51.6982 56.6472 49.9136 56.0718 48.209 55.8302L48.4035 54.3804C50.2568 54.6335 52.1902 55.2664 54.1464 56.2444L53.5058 57.5562ZM251.59 55.1973C250.194 53.759 248.753 52.4818 247.288 51.4231L248.146 50.238C249.668 51.3541 251.178 52.6774 252.631 54.1732L251.59 55.1973ZM170.194 53.3793C169.473 51.2045 168.878 49.4325 168.318 47.7986L169.691 47.3268C170.251 48.9607 170.846 50.7328 171.567 52.919L170.194 53.3793ZM226.571 50.376L225.735 49.1794C227.52 47.9251 229.316 46.9931 231.089 46.4178L231.536 47.8101C229.9 48.3394 228.229 49.2024 226.571 50.376ZM242.392 48.5925C240.596 47.8331 238.777 47.3613 236.992 47.1887L237.13 45.7389C239.063 45.923 241.031 46.4293 242.964 47.2462L242.392 48.5925ZM112.445 46.1301L111.003 46.0035C111.186 43.9553 111.381 41.9762 111.587 40.1236L113.028 40.2732C112.822 42.1143 112.628 44.0819 112.445 46.1301ZM166.396 42.2524C165.698 40.2847 165.035 38.4782 164.371 36.7522L165.721 36.2344C166.385 37.9834 167.048 39.7899 167.746 41.7691L166.396 42.2524ZM113.76 34.4509L112.33 34.2437C112.628 32.1956 112.948 30.2279 113.291 28.3984L114.721 28.663C114.378 30.4811 114.058 32.4257 113.76 34.4509ZM162.22 31.2865C161.442 29.3995 160.653 27.5929 159.887 25.9129L161.202 25.3031C161.98 26.9946 162.77 28.8241 163.559 30.7227L162.22 31.2865ZM115.945 22.9557L114.538 22.599C115.042 20.5624 115.602 18.6407 116.197 16.8917L117.57 17.3635C116.987 19.0665 116.437 20.9536 115.945 22.9557ZM157.301 20.6774C156.352 18.8709 155.368 17.1679 154.407 15.626L155.631 14.8436C156.615 16.42 157.61 18.146 158.582 19.987L157.301 20.6774ZM119.744 12.0014L118.439 11.357C119.389 9.41243 120.453 7.69794 121.574 6.2481L122.718 7.15713C121.654 8.52642 120.659 10.1489 119.744 12.0014ZM151.089 10.8853C149.819 9.28585 148.515 7.87054 147.2 6.67385L148.172 5.59222C149.545 6.83494 150.906 8.3193 152.222 9.97625L151.089 10.8853ZM126.768 3.37144L125.99 2.14023C127.706 1.0356 129.605 0.310679 131.618 0L131.836 1.43833C130.028 1.726 128.324 2.37037 126.768 3.37144ZM142.624 3.37144C140.93 2.45091 139.169 1.82955 137.396 1.50737L137.647 0.0690398C139.581 0.414239 141.491 1.09313 143.31 2.0827L142.624 3.37144Z" fill="#B7D0ED"/>
<path d="M53.1274 201.194C53.1274 201.194 17.8006 105.85 43.2203 84.6199C60.2088 70.4323 78.2268 101.707 99.7226 85.1607C118.862 70.4323 112.776 25.6024 143.298 19.4003C177.618 12.4388 185.18 96.046 213.345 84.6084C247.516 70.7429 281.516 98.8882 252.138 201.366L53.1274 201.194Z" fill="#6FEDFA"/>
<path d="M283.416 169.734C271.381 167.859 273.349 184.82 256.189 184.82C240.504 184.82 235.482 120.244 224.065 138.701C165.549 233.332 199.526 98.4508 152.988 96.7478C131.95 95.9769 117.924 119.577 112.753 161.369C105.26 199.145 87.8714 132.556 69.9907 138.747C58.6193 142.682 59.9234 184.831 44.2392 184.831C27.0791 184.831 29.0468 167.87 17.0119 169.746C4.05033 171.771 0.183594 201.78 0.183594 201.78H300.256C300.244 201.769 296.377 171.76 283.416 169.734Z" fill="white"/>
<path d="M272.753 188.087C261.679 187.282 263.487 194.531 247.699 194.531C233.262 194.531 233.662 178.307 224.007 174.855C206.218 168.503 191.563 200.653 184.665 184.52C171.566 141.716 133.368 120.244 115.75 184.52C108.852 200.653 92.7326 171.863 76.4077 174.855C66.3633 176.696 67.1412 194.531 52.7154 194.531C36.9281 194.531 38.7356 187.293 27.6617 188.087C15.7412 188.95 12.1719 201.769 12.1719 201.769H288.231C288.243 201.769 284.673 188.95 272.753 188.087Z" fill="#D1E4F6"/>
<path d="M0.172067 201.769C0.172067 201.769 -1.71554 209.478 7.01321 211.411C18.9452 214.046 88.9696 220.985 71.9583 226.266C62.3601 229.247 76.866 233.285 123.633 234.77C170.4 236.254 250.663 230.432 223.676 221.802C196.689 213.172 306.948 219.719 300.244 201.78H0.172067V201.769Z" fill="#C0C0C0"/>
</svg>
